G75*
G70*
%OFA0B0*%
%FSLAX24Y24*%
%IPPOS*%
%LPD*%
%AMOC8*
5,1,8,0,0,1.08239X$1,22.5*
%
%ADD10C,0.1457*%
%ADD11C,0.0640*%
%ADD12R,0.0640X0.0640*%
%ADD13R,0.0560X0.0560*%
%ADD14C,0.0560*%
%ADD15C,0.0555*%
%ADD16C,0.1615*%
%ADD17R,0.0594X0.0594*%
%ADD18C,0.0594*%
%ADD19C,0.0740*%
%ADD20R,0.0740X0.0740*%
%ADD21C,0.1040*%
%ADD22R,0.0900X0.0900*%
%ADD23C,0.0900*%
D10*
X012657Y025489D03*
D11*
X005157Y006089D03*
X009157Y006089D03*
X005207Y010989D03*
X005207Y011939D03*
X005207Y012839D03*
X005207Y013739D03*
X005207Y017239D03*
X003907Y018289D03*
X003907Y019289D03*
X007907Y019289D03*
X007907Y018289D03*
X010057Y021439D03*
X010057Y022439D03*
X011657Y023939D03*
X012657Y023939D03*
X013657Y023939D03*
X014657Y023939D03*
X016157Y024889D03*
X020157Y024889D03*
X014657Y019939D03*
X013657Y019939D03*
X012657Y019939D03*
X011657Y019939D03*
X009157Y024889D03*
X005157Y024889D03*
X016857Y016989D03*
X017857Y016989D03*
X018857Y016989D03*
X019857Y016989D03*
X019457Y018189D03*
X020457Y018189D03*
X018857Y013989D03*
X017857Y013989D03*
X017407Y012989D03*
X017407Y011989D03*
X016857Y013989D03*
X021407Y012989D03*
X021407Y011989D03*
X020157Y006089D03*
X016157Y006089D03*
D12*
X019857Y013989D03*
X007207Y013739D03*
X007207Y012839D03*
X007207Y011939D03*
X007207Y010989D03*
X007207Y017239D03*
D13*
X020357Y019339D03*
D14*
X019557Y019339D03*
D15*
X013149Y010798D03*
X013149Y010011D03*
X012165Y010011D03*
X012165Y010798D03*
D16*
X010257Y009039D03*
X015057Y009039D03*
D17*
X006407Y015095D03*
D18*
X006407Y015883D03*
D19*
X009157Y018489D03*
X009157Y012489D03*
X015157Y012489D03*
X015157Y018489D03*
D20*
X016157Y018489D03*
X016157Y012489D03*
X010157Y012489D03*
X010157Y018489D03*
D21*
X008657Y020989D03*
X008657Y022989D03*
X003657Y022989D03*
X003657Y020989D03*
X003657Y009989D03*
X003657Y007989D03*
X008657Y007989D03*
X008657Y009989D03*
X016657Y009989D03*
X016657Y007989D03*
X021657Y007989D03*
X021657Y009989D03*
X021657Y020989D03*
X021657Y022989D03*
X016657Y022989D03*
X016657Y020989D03*
D22*
X011157Y015489D03*
D23*
X014157Y015489D03*
M02*
