G75*
G70*
%OFA0B0*%
%FSLAX24Y24*%
%IPPOS*%
%LPD*%
%AMOC8*
5,1,8,0,0,1.08239X$1,22.5*
%
%ADD10C,0.0600*%
%ADD11R,0.0600X0.0600*%
%ADD12R,0.0520X0.0520*%
%ADD13C,0.0520*%
%ADD14C,0.0515*%
%ADD15C,0.1575*%
%ADD16R,0.0554X0.0554*%
%ADD17C,0.0554*%
%ADD18C,0.0700*%
%ADD19R,0.0700X0.0700*%
%ADD20C,0.1000*%
%ADD21R,0.0860X0.0860*%
%ADD22C,0.0860*%
%ADD23C,0.0100*%
%ADD24C,0.0400*%
%ADD25C,0.0396*%
%ADD26C,0.0200*%
D10*
X005157Y006089D03*
X009157Y006089D03*
X005207Y010989D03*
X005207Y011939D03*
X005207Y012839D03*
X005207Y013739D03*
X005207Y017239D03*
X003907Y018289D03*
X003907Y019289D03*
X007907Y019289D03*
X007907Y018289D03*
X010057Y021439D03*
X010057Y022439D03*
X011657Y023939D03*
X012657Y023939D03*
X013657Y023939D03*
X014657Y023939D03*
X016157Y024889D03*
X020157Y024889D03*
X014657Y019939D03*
X013657Y019939D03*
X012657Y019939D03*
X011657Y019939D03*
X009157Y024889D03*
X005157Y024889D03*
X016857Y016989D03*
X017857Y016989D03*
X018857Y016989D03*
X019857Y016989D03*
X019457Y018189D03*
X020457Y018189D03*
X018857Y013989D03*
X017857Y013989D03*
X017407Y012989D03*
X017407Y011989D03*
X016857Y013989D03*
X021407Y012989D03*
X021407Y011989D03*
X020157Y006089D03*
X016157Y006089D03*
D11*
X019857Y013989D03*
X007207Y013739D03*
X007207Y012839D03*
X007207Y011939D03*
X007207Y010989D03*
X007207Y017239D03*
D12*
X020357Y019339D03*
D13*
X019557Y019339D03*
D14*
X013149Y010798D03*
X013149Y010011D03*
X012165Y010011D03*
X012165Y010798D03*
D15*
X010257Y009039D03*
X015057Y009039D03*
D16*
X006407Y015095D03*
D17*
X006407Y015883D03*
D18*
X009157Y018489D03*
X009157Y012489D03*
X015157Y012489D03*
X015157Y018489D03*
D19*
X016157Y018489D03*
X016157Y012489D03*
X010157Y012489D03*
X010157Y018489D03*
D20*
X008657Y020989D03*
X008657Y022989D03*
X003657Y022989D03*
X003657Y020989D03*
X003657Y009989D03*
X003657Y007989D03*
X008657Y007989D03*
X008657Y009989D03*
X016657Y009989D03*
X016657Y007989D03*
X021657Y007989D03*
X021657Y009989D03*
X021657Y020989D03*
X021657Y022989D03*
X016657Y022989D03*
X016657Y020989D03*
D21*
X011157Y015489D03*
D22*
X014157Y015489D03*
D23*
X013690Y015927D02*
X011797Y015927D01*
X011797Y016006D02*
X011674Y016129D01*
X010640Y016129D01*
X010517Y016006D01*
X010517Y014972D01*
X010640Y014849D01*
X011674Y014849D01*
X011797Y014972D01*
X011797Y016006D01*
X011777Y016026D02*
X013789Y016026D01*
X013794Y016031D02*
X013614Y015851D01*
X013517Y015616D01*
X013517Y015362D01*
X013614Y015126D01*
X013794Y014946D01*
X014030Y014849D01*
X014284Y014849D01*
X014519Y014946D01*
X014699Y015126D01*
X014797Y015362D01*
X014797Y015549D01*
X014967Y015719D01*
X014967Y015861D01*
X015235Y016129D01*
X018178Y016129D01*
X018435Y016129D01*
X018635Y016329D01*
X018777Y016329D01*
X018927Y016479D01*
X018958Y016479D01*
X019146Y016557D01*
X019289Y016700D01*
X019357Y016863D01*
X019424Y016700D01*
X019568Y016557D01*
X019755Y016479D01*
X019958Y016479D01*
X020146Y016557D01*
X020289Y016700D01*
X020367Y016887D01*
X020367Y017090D01*
X020289Y017278D01*
X020146Y017421D01*
X019958Y017499D01*
X019927Y017499D01*
X019867Y017559D01*
X019867Y017878D01*
X019889Y017900D01*
X019935Y018011D01*
X019991Y017877D01*
X020145Y017723D01*
X020347Y017639D01*
X020422Y017639D01*
X020422Y018154D01*
X020492Y018154D01*
X020492Y018224D01*
X021007Y018224D01*
X021007Y018298D01*
X020923Y018501D01*
X020768Y018655D01*
X020566Y018739D01*
X020492Y018739D01*
X020492Y018224D01*
X020422Y018224D01*
X020422Y018739D01*
X020347Y018739D01*
X020145Y018655D01*
X019991Y018501D01*
X019935Y018367D01*
X019889Y018478D01*
X019867Y018500D01*
X019867Y018955D01*
X019993Y018829D01*
X020327Y018829D01*
X020327Y019309D01*
X020387Y019309D01*
X020387Y019369D01*
X020867Y019369D01*
X020867Y019703D01*
X020720Y019849D01*
X020387Y019849D01*
X020387Y019369D01*
X020327Y019369D01*
X020327Y019849D01*
X019993Y019849D01*
X019852Y019708D01*
X019823Y019737D01*
X019650Y019809D01*
X019463Y019809D01*
X019318Y019749D01*
X018037Y019749D01*
X017797Y019509D01*
X016717Y018429D01*
X016717Y018926D01*
X016594Y019049D01*
X016177Y019049D01*
X015977Y019249D01*
X015785Y019249D01*
X015367Y019667D01*
X015367Y019809D01*
X015167Y020009D01*
X015167Y020040D01*
X015089Y020228D01*
X014946Y020371D01*
X014758Y020449D01*
X014727Y020449D01*
X014477Y020699D01*
X014335Y020699D01*
X014185Y020849D01*
X013928Y020849D01*
X010628Y020849D01*
X010447Y020667D01*
X009128Y019349D01*
X008987Y019349D01*
X008747Y019109D01*
X008747Y018871D01*
X008682Y018806D01*
X008597Y018600D01*
X008597Y018378D01*
X008682Y018172D01*
X008840Y018014D01*
X009045Y017929D01*
X009268Y017929D01*
X009474Y018014D01*
X009597Y018137D01*
X009597Y018052D01*
X009720Y017929D01*
X010594Y017929D01*
X010717Y018052D01*
X010717Y018926D01*
X010594Y019049D01*
X009720Y019049D01*
X009597Y018926D01*
X009597Y018841D01*
X009567Y018871D01*
X009567Y018911D01*
X010885Y020229D01*
X011226Y020229D01*
X011224Y020228D01*
X011147Y020040D01*
X011147Y019837D01*
X011224Y019650D01*
X011368Y019507D01*
X011555Y019429D01*
X011758Y019429D01*
X011946Y019507D01*
X012089Y019650D01*
X012157Y019813D01*
X012224Y019650D01*
X012368Y019507D01*
X012555Y019429D01*
X012758Y019429D01*
X012946Y019507D01*
X013089Y019650D01*
X013157Y019813D01*
X013224Y019650D01*
X013247Y019628D01*
X013247Y019419D01*
X013323Y019343D01*
X012327Y018347D01*
X012276Y018347D01*
X012126Y018285D01*
X012011Y018170D01*
X011949Y018020D01*
X011949Y017858D01*
X012011Y017708D01*
X012020Y017699D01*
X011274Y017699D01*
X011238Y017735D01*
X011088Y017797D01*
X010926Y017797D01*
X010776Y017735D01*
X010661Y017620D01*
X010599Y017470D01*
X010599Y017308D01*
X010602Y017299D01*
X009777Y017299D01*
X009427Y017649D01*
X009087Y017649D01*
X007694Y017649D01*
X007617Y017726D01*
X007617Y017858D01*
X007618Y017857D01*
X007805Y017779D01*
X008008Y017779D01*
X008196Y017857D01*
X008339Y018000D01*
X008417Y018187D01*
X008417Y018390D01*
X008339Y018578D01*
X008196Y018721D01*
X008032Y018789D01*
X008196Y018857D01*
X008339Y019000D01*
X008417Y019187D01*
X008417Y019390D01*
X008339Y019578D01*
X008196Y019721D01*
X008008Y019799D01*
X007805Y019799D01*
X007618Y019721D01*
X007617Y019720D01*
X007617Y022719D01*
X007947Y023049D01*
X007947Y022848D01*
X008055Y022587D01*
X008255Y022387D01*
X008516Y022279D01*
X008798Y022279D01*
X009059Y022387D01*
X009259Y022587D01*
X009367Y022848D01*
X009367Y022879D01*
X009527Y022879D01*
X009627Y022979D01*
X015385Y022979D01*
X015567Y023161D01*
X016185Y023779D01*
X016327Y023779D01*
X016567Y024019D01*
X016567Y024578D01*
X016589Y024600D01*
X016667Y024787D01*
X016667Y024990D01*
X016589Y025178D01*
X016446Y025321D01*
X016408Y025337D01*
X016534Y025389D01*
X016884Y025503D01*
X017242Y025589D01*
X017606Y025646D01*
X017973Y025675D01*
X018341Y025675D01*
X018708Y025646D01*
X019072Y025589D01*
X019430Y025503D01*
X019780Y025389D01*
X019906Y025337D01*
X019868Y025321D01*
X019724Y025178D01*
X019647Y024990D01*
X019647Y024787D01*
X019724Y024600D01*
X019868Y024457D01*
X020055Y024379D01*
X020258Y024379D01*
X020446Y024457D01*
X020589Y024600D01*
X020667Y024787D01*
X020667Y024947D01*
X020762Y024888D01*
X021060Y024672D01*
X021340Y024433D01*
X021601Y024172D01*
X021840Y023892D01*
X022056Y023594D01*
X022058Y023591D01*
X021798Y023699D01*
X021516Y023699D01*
X021255Y023591D01*
X021055Y023391D01*
X020947Y023130D01*
X020947Y022848D01*
X021055Y022587D01*
X021255Y022387D01*
X021516Y022279D01*
X021798Y022279D01*
X022059Y022387D01*
X022259Y022587D01*
X022367Y022848D01*
X022367Y023049D01*
X022416Y022952D01*
X022557Y022612D01*
X022671Y022262D01*
X022756Y021904D01*
X022814Y021540D01*
X022843Y021173D01*
X022843Y020805D01*
X022814Y020438D01*
X022756Y020074D01*
X022671Y019716D01*
X022557Y019366D01*
X022416Y019026D01*
X022249Y018697D01*
X022056Y018383D01*
X021840Y018086D01*
X021601Y017806D01*
X021473Y017673D01*
X021397Y017597D01*
X021397Y017597D01*
X021366Y017566D01*
X021366Y017565D01*
X021173Y017331D01*
X021005Y017079D01*
X021005Y017079D01*
X020862Y016811D01*
X020745Y016531D01*
X020657Y016240D01*
X020598Y015943D01*
X020568Y015641D01*
X020568Y015337D01*
X020598Y015035D01*
X020657Y014738D01*
X020745Y014447D01*
X020862Y014167D01*
X021005Y013899D01*
X021173Y013647D01*
X021297Y013496D01*
X021118Y013421D01*
X020974Y013278D01*
X020897Y013090D01*
X020897Y013059D01*
X020787Y012949D01*
X019935Y012949D01*
X019267Y013617D01*
X019267Y013678D01*
X019289Y013700D01*
X019347Y013839D01*
X019347Y013602D01*
X019470Y013479D01*
X020244Y013479D01*
X020367Y013602D01*
X020367Y014376D01*
X020244Y014499D01*
X019470Y014499D01*
X019347Y014376D01*
X019347Y014139D01*
X019289Y014278D01*
X019146Y014421D01*
X018958Y014499D01*
X018755Y014499D01*
X018568Y014421D01*
X018424Y014278D01*
X018357Y014114D01*
X018289Y014278D01*
X018146Y014421D01*
X017958Y014499D01*
X017755Y014499D01*
X017568Y014421D01*
X017424Y014278D01*
X017378Y014167D01*
X017323Y014301D01*
X017168Y014455D01*
X016966Y014539D01*
X016895Y014539D01*
X016895Y014028D01*
X016818Y014028D01*
X016818Y014539D01*
X016747Y014539D01*
X016545Y014455D01*
X016391Y014301D01*
X016307Y014098D01*
X016307Y014077D01*
X016267Y014117D01*
X016267Y015372D01*
X016303Y015408D01*
X016365Y015558D01*
X016365Y015720D01*
X016303Y015870D01*
X016188Y015985D01*
X016038Y016047D01*
X015876Y016047D01*
X015726Y015985D01*
X015611Y015870D01*
X015549Y015720D01*
X015549Y015558D01*
X015611Y015408D01*
X015647Y015372D01*
X015647Y013861D01*
X015828Y013679D01*
X016459Y013049D01*
X016177Y013049D01*
X015977Y013249D01*
X015835Y013249D01*
X015617Y013467D01*
X015435Y013649D01*
X011985Y013649D01*
X011067Y014567D01*
X010885Y014749D01*
X009524Y014749D01*
X009488Y014785D01*
X009338Y014847D01*
X009176Y014847D01*
X009026Y014785D01*
X008911Y014670D01*
X008849Y014520D01*
X008849Y014358D01*
X008911Y014208D01*
X009026Y014093D01*
X009176Y014031D01*
X009338Y014031D01*
X009488Y014093D01*
X009524Y014129D01*
X010628Y014129D01*
X011728Y013029D01*
X011985Y013029D01*
X014997Y013029D01*
X014840Y012964D01*
X014775Y012899D01*
X014487Y012899D01*
X010717Y012899D01*
X010717Y012926D01*
X010594Y013049D01*
X009720Y013049D01*
X009597Y012926D01*
X009597Y012841D01*
X009474Y012964D01*
X009268Y013049D01*
X009045Y013049D01*
X008840Y012964D01*
X008775Y012899D01*
X008677Y012899D01*
X008337Y012899D01*
X007787Y012349D01*
X007694Y012349D01*
X007654Y012389D01*
X007717Y012452D01*
X007717Y013226D01*
X007654Y013289D01*
X007717Y013352D01*
X007717Y014126D01*
X007617Y014226D01*
X007617Y014319D01*
X007617Y014659D01*
X007617Y016752D01*
X007694Y016829D01*
X009087Y016829D01*
X009437Y016479D01*
X009777Y016479D01*
X014709Y016479D01*
X014528Y016299D01*
X014387Y016299D01*
X014217Y016129D01*
X014030Y016129D01*
X013794Y016031D01*
X014019Y016124D02*
X011678Y016124D01*
X011797Y015829D02*
X013605Y015829D01*
X013564Y015730D02*
X011797Y015730D01*
X011797Y015632D02*
X013523Y015632D01*
X013517Y015533D02*
X011797Y015533D01*
X011797Y015435D02*
X013517Y015435D01*
X013527Y015336D02*
X011797Y015336D01*
X011797Y015237D02*
X013568Y015237D01*
X013609Y015139D02*
X011797Y015139D01*
X011797Y015040D02*
X013700Y015040D01*
X013805Y014942D02*
X011767Y014942D01*
X011185Y014449D02*
X015647Y014449D01*
X015647Y014351D02*
X011284Y014351D01*
X011382Y014252D02*
X015647Y014252D01*
X015647Y014154D02*
X011481Y014154D01*
X011579Y014055D02*
X015647Y014055D01*
X015647Y013956D02*
X011678Y013956D01*
X011776Y013858D02*
X015650Y013858D01*
X015748Y013759D02*
X011875Y013759D01*
X011973Y013661D02*
X015847Y013661D01*
X015945Y013562D02*
X015522Y013562D01*
X015620Y013464D02*
X016044Y013464D01*
X016142Y013365D02*
X015719Y013365D01*
X015818Y013267D02*
X016241Y013267D01*
X016339Y013168D02*
X016058Y013168D01*
X016156Y013070D02*
X016438Y013070D01*
X015597Y012137D02*
X015597Y012052D01*
X015720Y011929D01*
X016447Y011929D01*
X016447Y011917D01*
X015378Y010849D01*
X013678Y010849D01*
X013603Y010924D01*
X013545Y011063D01*
X013414Y011194D01*
X013242Y011265D01*
X013056Y011265D01*
X012884Y011194D01*
X012753Y011063D01*
X012681Y010891D01*
X012681Y010705D01*
X012753Y010533D01*
X012882Y010404D01*
X012753Y010275D01*
X012681Y010104D01*
X012681Y009918D01*
X012753Y009746D01*
X012884Y009614D01*
X013056Y009543D01*
X013242Y009543D01*
X013414Y009614D01*
X013545Y009746D01*
X013603Y009885D01*
X013647Y009929D01*
X014495Y009929D01*
X014469Y009918D01*
X014177Y009627D01*
X014019Y009245D01*
X014019Y009089D01*
X015007Y009089D01*
X015007Y008989D01*
X014019Y008989D01*
X014019Y008833D01*
X014177Y008451D01*
X014469Y008159D01*
X014615Y008099D01*
X010737Y008099D01*
X010497Y007859D01*
X009237Y006599D01*
X009055Y006599D01*
X008868Y006521D01*
X008724Y006378D01*
X008647Y006190D01*
X008647Y005987D01*
X008724Y005800D01*
X008868Y005657D01*
X008907Y005641D01*
X008826Y005606D01*
X008486Y005491D01*
X008138Y005403D01*
X007784Y005341D01*
X007426Y005307D01*
X007067Y005300D01*
X006708Y005321D01*
X006352Y005369D01*
X006001Y005444D01*
X005656Y005546D01*
X005407Y005641D01*
X005446Y005657D01*
X005589Y005800D01*
X005667Y005987D01*
X005667Y006190D01*
X005589Y006378D01*
X005446Y006521D01*
X005258Y006599D01*
X005227Y006599D01*
X004249Y007577D01*
X004259Y007587D01*
X004367Y007848D01*
X004367Y008130D01*
X004259Y008391D01*
X004059Y008591D01*
X003798Y008699D01*
X003516Y008699D01*
X003255Y008591D01*
X003055Y008391D01*
X002947Y008130D01*
X002947Y007929D01*
X002841Y008153D01*
X002714Y008489D01*
X002612Y008833D01*
X002612Y008833D01*
X002537Y009184D01*
X002489Y009540D01*
X002468Y009899D01*
X002475Y010258D01*
X002509Y010616D01*
X002571Y010970D01*
X002659Y011318D01*
X002774Y011658D01*
X002915Y011989D01*
X003080Y012308D01*
X003270Y012613D01*
X003482Y012903D01*
X003716Y013176D01*
X003840Y013305D01*
X003841Y013305D01*
X003948Y013412D01*
X003948Y013412D01*
X004140Y013647D01*
X004197Y013731D01*
X004197Y012509D01*
X004197Y012169D01*
X004837Y011529D01*
X004896Y011529D01*
X004918Y011507D01*
X005021Y011464D01*
X004918Y011421D01*
X004774Y011278D01*
X004697Y011090D01*
X004697Y010887D01*
X004774Y010700D01*
X004918Y010557D01*
X005105Y010479D01*
X005308Y010479D01*
X005496Y010557D01*
X005547Y010608D01*
X005547Y010369D01*
X005747Y010169D01*
X005987Y009929D01*
X007437Y009929D01*
X007777Y009929D01*
X007947Y010099D01*
X007947Y009848D01*
X008055Y009587D01*
X008255Y009387D01*
X008516Y009279D01*
X008798Y009279D01*
X009059Y009387D01*
X009259Y009587D01*
X009367Y009848D01*
X009367Y010130D01*
X009260Y010388D01*
X011824Y010388D01*
X011734Y010298D01*
X011657Y010112D01*
X011657Y010039D01*
X012136Y010039D01*
X012136Y009982D01*
X011657Y009982D01*
X011657Y009910D01*
X011734Y009723D01*
X011877Y009580D01*
X012064Y009503D01*
X012136Y009503D01*
X012136Y009982D01*
X012193Y009982D01*
X012193Y009503D01*
X012266Y009503D01*
X012452Y009580D01*
X012595Y009723D01*
X012672Y009910D01*
X012672Y009982D01*
X012194Y009982D01*
X012194Y010039D01*
X012672Y010039D01*
X012672Y010112D01*
X012595Y010298D01*
X012460Y010433D01*
X012561Y010533D01*
X012632Y010705D01*
X012632Y010891D01*
X012561Y011063D01*
X012430Y011194D01*
X012258Y011265D01*
X012072Y011265D01*
X011933Y011208D01*
X007896Y011208D01*
X007757Y011069D01*
X007757Y011393D01*
X007657Y011492D01*
X007694Y011529D01*
X007787Y011529D01*
X008127Y011529D01*
X008677Y012079D01*
X008775Y012079D01*
X008840Y012014D01*
X009045Y011929D01*
X009268Y011929D01*
X009474Y012014D01*
X009597Y012137D01*
X009597Y012052D01*
X009720Y011929D01*
X010594Y011929D01*
X010717Y012052D01*
X010717Y012079D01*
X014487Y012079D01*
X014775Y012079D01*
X014840Y012014D01*
X015045Y011929D01*
X015268Y011929D01*
X015474Y012014D01*
X015597Y012137D01*
X015597Y012084D02*
X015544Y012084D01*
X015663Y011986D02*
X015405Y011986D01*
X014909Y011986D02*
X010650Y011986D01*
X010672Y012971D02*
X014857Y012971D01*
X015647Y014548D02*
X011086Y014548D01*
X010988Y014646D02*
X015647Y014646D01*
X015647Y014745D02*
X010889Y014745D01*
X010547Y014942D02*
X007617Y014942D01*
X007617Y015040D02*
X010517Y015040D01*
X010517Y015139D02*
X007617Y015139D01*
X007617Y015237D02*
X010517Y015237D01*
X010517Y015336D02*
X007617Y015336D01*
X007617Y015435D02*
X010517Y015435D01*
X010517Y015533D02*
X007617Y015533D01*
X007617Y015632D02*
X010517Y015632D01*
X010517Y015730D02*
X007617Y015730D01*
X007617Y015829D02*
X010517Y015829D01*
X010517Y015927D02*
X007617Y015927D01*
X007617Y016026D02*
X010537Y016026D01*
X010635Y016124D02*
X007617Y016124D01*
X007617Y016223D02*
X014311Y016223D01*
X014551Y016321D02*
X007617Y016321D01*
X007617Y016420D02*
X014650Y016420D01*
X015132Y016026D02*
X015824Y016026D01*
X015668Y015927D02*
X015034Y015927D01*
X014967Y015829D02*
X015594Y015829D01*
X015553Y015730D02*
X014967Y015730D01*
X014879Y015632D02*
X015549Y015632D01*
X015559Y015533D02*
X014797Y015533D01*
X014797Y015435D02*
X015600Y015435D01*
X015647Y015336D02*
X014786Y015336D01*
X014745Y015237D02*
X015647Y015237D01*
X015647Y015139D02*
X014705Y015139D01*
X014613Y015040D02*
X015647Y015040D01*
X015647Y014942D02*
X014508Y014942D01*
X015647Y014843D02*
X009347Y014843D01*
X009167Y014843D02*
X007617Y014843D01*
X007617Y014745D02*
X008986Y014745D01*
X008901Y014646D02*
X007617Y014646D01*
X007617Y014548D02*
X008860Y014548D01*
X008849Y014449D02*
X007617Y014449D01*
X007617Y014351D02*
X008852Y014351D01*
X008893Y014252D02*
X007617Y014252D01*
X007689Y014154D02*
X008965Y014154D01*
X009117Y014055D02*
X007717Y014055D01*
X007717Y013956D02*
X010801Y013956D01*
X010900Y013858D02*
X007717Y013858D01*
X007717Y013759D02*
X010998Y013759D01*
X011097Y013661D02*
X007717Y013661D01*
X007717Y013562D02*
X011195Y013562D01*
X011294Y013464D02*
X007717Y013464D01*
X007717Y013365D02*
X011392Y013365D01*
X011491Y013267D02*
X007676Y013267D01*
X007717Y013168D02*
X011589Y013168D01*
X011688Y013070D02*
X007717Y013070D01*
X007717Y012971D02*
X008857Y012971D01*
X008311Y012872D02*
X007717Y012872D01*
X007717Y012774D02*
X008212Y012774D01*
X008113Y012675D02*
X007717Y012675D01*
X007717Y012577D02*
X008015Y012577D01*
X007916Y012478D02*
X007717Y012478D01*
X007663Y012380D02*
X007818Y012380D01*
X008288Y011690D02*
X016219Y011690D01*
X016121Y011591D02*
X008189Y011591D01*
X008386Y011788D02*
X016318Y011788D01*
X016416Y011887D02*
X008485Y011887D01*
X008583Y011986D02*
X008909Y011986D01*
X009405Y011986D02*
X009663Y011986D01*
X009597Y012084D02*
X009544Y012084D01*
X009565Y012872D02*
X009597Y012872D01*
X009642Y012971D02*
X009456Y012971D01*
X009396Y014055D02*
X010702Y014055D01*
X009397Y016519D02*
X007617Y016519D01*
X007617Y016617D02*
X009299Y016617D01*
X009200Y016716D02*
X007617Y016716D01*
X007679Y016814D02*
X009102Y016814D01*
X009670Y017405D02*
X010599Y017405D01*
X010599Y017307D02*
X009769Y017307D01*
X009572Y017504D02*
X010613Y017504D01*
X010654Y017603D02*
X009473Y017603D01*
X009432Y017997D02*
X009652Y017997D01*
X009597Y018095D02*
X009555Y018095D01*
X008882Y017997D02*
X008336Y017997D01*
X008379Y018095D02*
X008759Y018095D01*
X008673Y018194D02*
X008417Y018194D01*
X008417Y018292D02*
X008632Y018292D01*
X008597Y018391D02*
X008417Y018391D01*
X008376Y018489D02*
X008597Y018489D01*
X008597Y018588D02*
X008329Y018588D01*
X008231Y018686D02*
X008633Y018686D01*
X008673Y018785D02*
X008042Y018785D01*
X008223Y018884D02*
X008747Y018884D01*
X008747Y018982D02*
X008321Y018982D01*
X008373Y019081D02*
X008747Y019081D01*
X008817Y019179D02*
X008413Y019179D01*
X008417Y019278D02*
X008916Y019278D01*
X009156Y019376D02*
X008417Y019376D01*
X008382Y019475D02*
X009254Y019475D01*
X009353Y019573D02*
X008341Y019573D01*
X008245Y019672D02*
X009451Y019672D01*
X009550Y019770D02*
X008077Y019770D01*
X007737Y019770D02*
X007617Y019770D01*
X007617Y019869D02*
X009649Y019869D01*
X009747Y019968D02*
X007617Y019968D01*
X007617Y020066D02*
X009846Y020066D01*
X009944Y020165D02*
X007617Y020165D01*
X007617Y020263D02*
X008449Y020263D01*
X008508Y020239D02*
X008607Y020239D01*
X008607Y020939D01*
X008707Y020939D01*
X008707Y021039D01*
X009407Y021039D01*
X009407Y021138D01*
X009293Y021414D01*
X009082Y021625D01*
X008806Y021739D01*
X008707Y021739D01*
X008707Y021039D01*
X008607Y021039D01*
X008607Y021739D01*
X008508Y021739D01*
X008232Y021625D01*
X008021Y021414D01*
X007907Y021138D01*
X007907Y021039D01*
X008607Y021039D01*
X008607Y020939D01*
X007907Y020939D01*
X007907Y020840D01*
X008021Y020564D01*
X008232Y020353D01*
X008508Y020239D01*
X008607Y020263D02*
X008707Y020263D01*
X008707Y020239D02*
X008806Y020239D01*
X009082Y020353D01*
X009293Y020564D01*
X009407Y020840D01*
X009407Y020939D01*
X008707Y020939D01*
X008707Y020239D01*
X008707Y020362D02*
X008607Y020362D01*
X008607Y020460D02*
X008707Y020460D01*
X008707Y020559D02*
X008607Y020559D01*
X008607Y020657D02*
X008707Y020657D01*
X008707Y020756D02*
X008607Y020756D01*
X008607Y020854D02*
X008707Y020854D01*
X008707Y020953D02*
X009793Y020953D01*
X009745Y020973D02*
X009947Y020889D01*
X010022Y020889D01*
X010022Y021404D01*
X010092Y021404D01*
X010092Y021474D01*
X010607Y021474D01*
X010607Y021548D01*
X010523Y021751D01*
X010368Y021905D01*
X010235Y021961D01*
X010346Y022007D01*
X010489Y022150D01*
X010567Y022337D01*
X010567Y022540D01*
X010489Y022728D01*
X010346Y022871D01*
X010158Y022949D01*
X009955Y022949D01*
X009768Y022871D01*
X009624Y022728D01*
X009547Y022540D01*
X009547Y022337D01*
X009624Y022150D01*
X009768Y022007D01*
X009879Y021961D01*
X009745Y021905D01*
X009591Y021751D01*
X009507Y021548D01*
X009507Y021474D01*
X010022Y021474D01*
X010022Y021404D01*
X009507Y021404D01*
X009507Y021330D01*
X009591Y021127D01*
X009745Y020973D01*
X009666Y021052D02*
X009407Y021052D01*
X009402Y021150D02*
X009581Y021150D01*
X009540Y021249D02*
X009361Y021249D01*
X009320Y021347D02*
X009507Y021347D01*
X009507Y021544D02*
X009162Y021544D01*
X009261Y021446D02*
X010022Y021446D01*
X010092Y021446D02*
X016109Y021446D01*
X016055Y021391D02*
X015947Y021130D01*
X015947Y020848D01*
X016055Y020587D01*
X016255Y020387D01*
X016516Y020279D01*
X016798Y020279D01*
X017059Y020387D01*
X017259Y020587D01*
X017367Y020848D01*
X017367Y021130D01*
X017259Y021391D01*
X017059Y021591D01*
X016798Y021699D01*
X016516Y021699D01*
X016255Y021591D01*
X016055Y021391D01*
X016037Y021347D02*
X010607Y021347D01*
X010607Y021330D02*
X010607Y021404D01*
X010092Y021404D01*
X010092Y020889D01*
X010166Y020889D01*
X010368Y020973D01*
X010523Y021127D01*
X010607Y021330D01*
X010573Y021249D02*
X015996Y021249D01*
X015955Y021150D02*
X010532Y021150D01*
X010447Y021052D02*
X015947Y021052D01*
X015947Y020953D02*
X010321Y020953D01*
X010092Y020953D02*
X010022Y020953D01*
X010022Y021052D02*
X010092Y021052D01*
X010092Y021150D02*
X010022Y021150D01*
X010022Y021249D02*
X010092Y021249D01*
X010092Y021347D02*
X010022Y021347D01*
X009680Y021840D02*
X007617Y021840D01*
X007617Y021938D02*
X009826Y021938D01*
X009738Y022037D02*
X007617Y022037D01*
X007617Y022136D02*
X009639Y022136D01*
X009590Y022234D02*
X007617Y022234D01*
X007617Y022333D02*
X008386Y022333D01*
X008211Y022431D02*
X007617Y022431D01*
X007617Y022530D02*
X008112Y022530D01*
X008038Y022628D02*
X007617Y022628D01*
X007624Y022727D02*
X007997Y022727D01*
X007956Y022825D02*
X007723Y022825D01*
X007821Y022924D02*
X007947Y022924D01*
X007947Y023022D02*
X007920Y023022D01*
X007352Y023614D02*
X004004Y023614D01*
X004059Y023591D02*
X003798Y023699D01*
X003516Y023699D01*
X003261Y023593D01*
X003373Y023760D01*
X003597Y024042D01*
X003841Y024305D01*
X004104Y024549D01*
X004386Y024772D01*
X004647Y024949D01*
X004647Y024787D01*
X004724Y024600D01*
X004868Y024457D01*
X005055Y024379D01*
X005258Y024379D01*
X005446Y024457D01*
X005589Y024600D01*
X005667Y024787D01*
X005667Y024990D01*
X005589Y025178D01*
X005446Y025321D01*
X005407Y025337D01*
X005656Y025432D01*
X006001Y025534D01*
X006352Y025609D01*
X006708Y025657D01*
X007067Y025678D01*
X007426Y025671D01*
X007784Y025637D01*
X008138Y025575D01*
X008486Y025486D01*
X008826Y025372D01*
X008907Y025337D01*
X008868Y025321D01*
X008724Y025178D01*
X008647Y024990D01*
X008647Y024787D01*
X008724Y024600D01*
X008868Y024457D01*
X009055Y024379D01*
X009258Y024379D01*
X009446Y024457D01*
X009589Y024600D01*
X009667Y024787D01*
X009667Y024947D01*
X009781Y024876D01*
X010071Y024664D01*
X010344Y024430D01*
X010428Y024349D01*
X008087Y024349D01*
X007847Y024109D01*
X006797Y023059D01*
X006797Y022719D01*
X006797Y018119D01*
X006797Y017726D01*
X006697Y017626D01*
X006697Y016852D01*
X006797Y016752D01*
X006797Y016238D01*
X006705Y016330D01*
X006512Y016410D01*
X006445Y016410D01*
X006445Y015921D01*
X006368Y015921D01*
X006368Y016410D01*
X006302Y016410D01*
X006108Y016330D01*
X005960Y016181D01*
X005880Y015988D01*
X005880Y015946D01*
X005617Y016209D01*
X005617Y016928D01*
X005639Y016950D01*
X005717Y017137D01*
X005717Y017340D01*
X005639Y017528D01*
X005496Y017671D01*
X005308Y017749D01*
X005105Y017749D01*
X004918Y017671D01*
X004774Y017528D01*
X004697Y017340D01*
X004697Y017137D01*
X004774Y016950D01*
X004797Y016928D01*
X004797Y015869D01*
X005037Y015629D01*
X005767Y014899D01*
X005227Y014899D01*
X004887Y014899D01*
X004626Y014638D01*
X004656Y014738D01*
X004715Y015035D01*
X004745Y015337D01*
X004745Y015641D01*
X004715Y015943D01*
X004656Y016240D01*
X004568Y016531D01*
X004452Y016811D01*
X004309Y017079D01*
X004140Y017331D01*
X003948Y017565D01*
X003948Y017566D01*
X003841Y017673D01*
X003841Y017673D01*
X003841Y017673D01*
X003716Y017802D01*
X003698Y017824D01*
X003805Y017779D01*
X004008Y017779D01*
X004196Y017857D01*
X004339Y018000D01*
X004417Y018187D01*
X004417Y018390D01*
X004339Y018578D01*
X004196Y018721D01*
X004032Y018789D01*
X004196Y018857D01*
X004339Y019000D01*
X004417Y019187D01*
X004417Y019390D01*
X004339Y019578D01*
X004196Y019721D01*
X004008Y019799D01*
X003805Y019799D01*
X003618Y019721D01*
X003474Y019578D01*
X003397Y019390D01*
X003397Y019187D01*
X003474Y019000D01*
X003618Y018857D01*
X003781Y018789D01*
X003618Y018721D01*
X003474Y018578D01*
X003397Y018390D01*
X003397Y018191D01*
X003270Y018365D01*
X003080Y018670D01*
X002915Y018989D01*
X002774Y019319D01*
X002659Y019660D01*
X002571Y020008D01*
X002509Y020362D01*
X002475Y020720D01*
X002468Y021079D01*
X002489Y021437D01*
X002537Y021793D01*
X002612Y022145D01*
X002714Y022489D01*
X002841Y022825D01*
X002947Y023049D01*
X002947Y022848D01*
X003055Y022587D01*
X003255Y022387D01*
X003516Y022279D01*
X003798Y022279D01*
X004059Y022387D01*
X004259Y022587D01*
X004367Y022848D01*
X004367Y023130D01*
X004259Y023391D01*
X004059Y023591D01*
X004135Y023515D02*
X007253Y023515D01*
X007155Y023417D02*
X004233Y023417D01*
X004289Y023318D02*
X007056Y023318D01*
X006958Y023219D02*
X004330Y023219D01*
X004367Y023121D02*
X006859Y023121D01*
X006797Y023022D02*
X004367Y023022D01*
X004367Y022924D02*
X006797Y022924D01*
X006797Y022825D02*
X004358Y022825D01*
X004317Y022727D02*
X006797Y022727D01*
X006797Y022628D02*
X004276Y022628D01*
X004202Y022530D02*
X006797Y022530D01*
X006797Y022431D02*
X004103Y022431D01*
X003928Y022333D02*
X006797Y022333D01*
X006797Y022234D02*
X002638Y022234D01*
X002610Y022136D02*
X006797Y022136D01*
X006797Y022037D02*
X002589Y022037D01*
X002568Y021938D02*
X006797Y021938D01*
X006797Y021840D02*
X002546Y021840D01*
X002530Y021741D02*
X006797Y021741D01*
X006797Y021643D02*
X003934Y021643D01*
X004059Y021591D02*
X003798Y021699D01*
X003516Y021699D01*
X003255Y021591D01*
X003055Y021391D01*
X002947Y021130D01*
X002947Y020848D01*
X003055Y020587D01*
X003255Y020387D01*
X003516Y020279D01*
X003798Y020279D01*
X004059Y020387D01*
X004259Y020587D01*
X004367Y020848D01*
X004367Y021130D01*
X004259Y021391D01*
X004059Y021591D01*
X004106Y021544D02*
X006797Y021544D01*
X006797Y021446D02*
X004204Y021446D01*
X004277Y021347D02*
X006797Y021347D01*
X006797Y021249D02*
X004318Y021249D01*
X004359Y021150D02*
X006797Y021150D01*
X006797Y021052D02*
X004367Y021052D01*
X004367Y020953D02*
X006797Y020953D01*
X006797Y020854D02*
X004367Y020854D01*
X004329Y020756D02*
X006797Y020756D01*
X006797Y020657D02*
X004288Y020657D01*
X004231Y020559D02*
X006797Y020559D01*
X006797Y020460D02*
X004132Y020460D01*
X003998Y020362D02*
X006797Y020362D01*
X006797Y020263D02*
X002526Y020263D01*
X002544Y020165D02*
X006797Y020165D01*
X006797Y020066D02*
X002561Y020066D01*
X002581Y019968D02*
X006797Y019968D01*
X006797Y019869D02*
X002606Y019869D01*
X002631Y019770D02*
X003737Y019770D01*
X003569Y019672D02*
X002656Y019672D01*
X002689Y019573D02*
X003473Y019573D01*
X003432Y019475D02*
X002722Y019475D01*
X002755Y019376D02*
X003397Y019376D01*
X003397Y019278D02*
X002792Y019278D01*
X002834Y019179D02*
X003400Y019179D01*
X003441Y019081D02*
X002876Y019081D01*
X002918Y018982D02*
X003492Y018982D01*
X003591Y018884D02*
X002970Y018884D01*
X003021Y018785D02*
X003772Y018785D01*
X003583Y018686D02*
X003072Y018686D01*
X003131Y018588D02*
X003485Y018588D01*
X003438Y018489D02*
X003193Y018489D01*
X003254Y018391D02*
X003397Y018391D01*
X003397Y018292D02*
X003323Y018292D01*
X003395Y018194D02*
X003397Y018194D01*
X003719Y017800D02*
X003756Y017800D01*
X003813Y017701D02*
X004990Y017701D01*
X004849Y017603D02*
X003911Y017603D01*
X003948Y017566D02*
X003948Y017566D01*
X003998Y017504D02*
X004765Y017504D01*
X004724Y017405D02*
X004079Y017405D01*
X004140Y017331D02*
X004140Y017331D01*
X004156Y017307D02*
X004697Y017307D01*
X004697Y017208D02*
X004222Y017208D01*
X004288Y017110D02*
X004708Y017110D01*
X004749Y017011D02*
X004345Y017011D01*
X004309Y017079D02*
X004309Y017079D01*
X004398Y016913D02*
X004797Y016913D01*
X004797Y016814D02*
X004450Y016814D01*
X004452Y016811D02*
X004452Y016811D01*
X004492Y016716D02*
X004797Y016716D01*
X004797Y016617D02*
X004532Y016617D01*
X004568Y016531D02*
X004568Y016531D01*
X004572Y016519D02*
X004797Y016519D01*
X004797Y016420D02*
X004602Y016420D01*
X004632Y016321D02*
X004797Y016321D01*
X004797Y016223D02*
X004660Y016223D01*
X004656Y016240D02*
X004656Y016240D01*
X004679Y016124D02*
X004797Y016124D01*
X004797Y016026D02*
X004699Y016026D01*
X004715Y015943D02*
X004715Y015943D01*
X004717Y015927D02*
X004797Y015927D01*
X004837Y015829D02*
X004727Y015829D01*
X004736Y015730D02*
X004936Y015730D01*
X005034Y015632D02*
X004745Y015632D01*
X004745Y015641D02*
X004745Y015641D01*
X004745Y015533D02*
X005133Y015533D01*
X005231Y015435D02*
X004745Y015435D01*
X004745Y015337D02*
X004745Y015337D01*
X004745Y015336D02*
X005330Y015336D01*
X005429Y015237D02*
X004735Y015237D01*
X004726Y015139D02*
X005527Y015139D01*
X005626Y015040D02*
X004716Y015040D01*
X004715Y015035D02*
X004715Y015035D01*
X004697Y014942D02*
X005724Y014942D01*
X004831Y014843D02*
X004677Y014843D01*
X004658Y014745D02*
X004733Y014745D01*
X004656Y014738D02*
X004656Y014738D01*
X004634Y014646D02*
X004629Y014646D01*
X004197Y013661D02*
X004150Y013661D01*
X004140Y013647D02*
X004140Y013647D01*
X004197Y013562D02*
X004071Y013562D01*
X003990Y013464D02*
X004197Y013464D01*
X004197Y013365D02*
X003901Y013365D01*
X003804Y013267D02*
X004197Y013267D01*
X004197Y013168D02*
X003710Y013168D01*
X003625Y013070D02*
X004197Y013070D01*
X004197Y012971D02*
X003541Y012971D01*
X003460Y012872D02*
X004197Y012872D01*
X004197Y012774D02*
X003388Y012774D01*
X003316Y012675D02*
X004197Y012675D01*
X004197Y012577D02*
X003247Y012577D01*
X003186Y012478D02*
X004197Y012478D01*
X004197Y012380D02*
X003125Y012380D01*
X003067Y012281D02*
X004197Y012281D01*
X004197Y012183D02*
X003015Y012183D01*
X002964Y012084D02*
X004282Y012084D01*
X004380Y011986D02*
X002913Y011986D01*
X002871Y011887D02*
X004479Y011887D01*
X004578Y011788D02*
X002830Y011788D01*
X002788Y011690D02*
X004676Y011690D01*
X004775Y011591D02*
X002752Y011591D01*
X002718Y011493D02*
X004951Y011493D01*
X004891Y011394D02*
X002685Y011394D01*
X002654Y011296D02*
X004792Y011296D01*
X004741Y011197D02*
X002629Y011197D01*
X002604Y011099D02*
X004700Y011099D01*
X004697Y011000D02*
X002578Y011000D01*
X002559Y010902D02*
X004697Y010902D01*
X004732Y010803D02*
X002542Y010803D01*
X002525Y010704D02*
X003424Y010704D01*
X003508Y010739D02*
X003232Y010625D01*
X003021Y010414D01*
X002907Y010138D01*
X002907Y010039D01*
X003607Y010039D01*
X003607Y010739D01*
X003508Y010739D01*
X003607Y010704D02*
X003707Y010704D01*
X003707Y010739D02*
X003707Y010039D01*
X004407Y010039D01*
X004407Y010138D01*
X004293Y010414D01*
X004082Y010625D01*
X003806Y010739D01*
X003707Y010739D01*
X003707Y010606D02*
X003607Y010606D01*
X003607Y010507D02*
X003707Y010507D01*
X003707Y010409D02*
X003607Y010409D01*
X003607Y010310D02*
X003707Y010310D01*
X003707Y010212D02*
X003607Y010212D01*
X003607Y010113D02*
X003707Y010113D01*
X003707Y010039D02*
X003607Y010039D01*
X003607Y009939D01*
X003707Y009939D01*
X003707Y010039D01*
X003707Y010015D02*
X005901Y010015D01*
X005803Y010113D02*
X004407Y010113D01*
X004376Y010212D02*
X005704Y010212D01*
X005606Y010310D02*
X004336Y010310D01*
X004295Y010409D02*
X005547Y010409D01*
X005547Y010507D02*
X005377Y010507D01*
X005545Y010606D02*
X005547Y010606D01*
X005037Y010507D02*
X004199Y010507D01*
X004100Y010606D02*
X004869Y010606D01*
X004773Y010704D02*
X003889Y010704D01*
X003607Y010015D02*
X002470Y010015D01*
X002472Y010113D02*
X002907Y010113D01*
X002937Y010212D02*
X002474Y010212D01*
X002480Y010310D02*
X002978Y010310D01*
X003019Y010409D02*
X002489Y010409D01*
X002499Y010507D02*
X003115Y010507D01*
X003213Y010606D02*
X002508Y010606D01*
X002468Y009916D02*
X002907Y009916D01*
X002907Y009939D02*
X002907Y009840D01*
X003021Y009564D01*
X003232Y009353D01*
X003508Y009239D01*
X003607Y009239D01*
X003607Y009939D01*
X002907Y009939D01*
X002916Y009818D02*
X002473Y009818D01*
X002478Y009719D02*
X002957Y009719D01*
X002998Y009621D02*
X002484Y009621D01*
X002491Y009522D02*
X003063Y009522D01*
X003162Y009423D02*
X002504Y009423D01*
X002518Y009325D02*
X003300Y009325D01*
X003607Y009325D02*
X003707Y009325D01*
X003707Y009239D02*
X003806Y009239D01*
X004082Y009353D01*
X004293Y009564D01*
X004407Y009840D01*
X004407Y009939D01*
X003707Y009939D01*
X003707Y009239D01*
X003707Y009423D02*
X003607Y009423D01*
X003607Y009522D02*
X003707Y009522D01*
X003707Y009621D02*
X003607Y009621D01*
X003607Y009719D02*
X003707Y009719D01*
X003707Y009818D02*
X003607Y009818D01*
X003607Y009916D02*
X003707Y009916D01*
X004152Y009423D02*
X008218Y009423D01*
X008120Y009522D02*
X004250Y009522D01*
X004316Y009621D02*
X008041Y009621D01*
X008000Y009719D02*
X004357Y009719D01*
X004398Y009818D02*
X007959Y009818D01*
X007947Y009916D02*
X004407Y009916D01*
X004013Y009325D02*
X008405Y009325D01*
X008909Y009325D02*
X009252Y009325D01*
X009219Y009245D02*
X009219Y009089D01*
X010207Y009089D01*
X010207Y010076D01*
X010050Y010076D01*
X009669Y009918D01*
X009377Y009627D01*
X009219Y009245D01*
X009219Y009226D02*
X002531Y009226D01*
X002549Y009128D02*
X009219Y009128D01*
X009219Y008989D02*
X009219Y008833D01*
X009377Y008451D01*
X009669Y008159D01*
X010050Y008002D01*
X010207Y008002D01*
X010207Y008989D01*
X010307Y008989D01*
X010307Y009089D01*
X011294Y009089D01*
X011294Y009245D01*
X011136Y009627D01*
X010844Y009918D01*
X010463Y010076D01*
X010307Y010076D01*
X010307Y009089D01*
X010207Y009089D01*
X010207Y008989D01*
X009219Y008989D01*
X009219Y008931D02*
X002591Y008931D01*
X002570Y009029D02*
X010207Y009029D01*
X010207Y008931D02*
X010307Y008931D01*
X010307Y008989D02*
X010307Y008002D01*
X010463Y008002D01*
X010844Y008159D01*
X011136Y008451D01*
X011294Y008833D01*
X011294Y008989D01*
X010307Y008989D01*
X010307Y009029D02*
X015007Y009029D01*
X015107Y009029D02*
X022744Y009029D01*
X022723Y008931D02*
X016094Y008931D01*
X016094Y008989D02*
X015107Y008989D01*
X015107Y009089D01*
X016094Y009089D01*
X016094Y009245D01*
X015936Y009627D01*
X015644Y009918D01*
X015619Y009929D01*
X015785Y009929D01*
X015907Y010051D01*
X015907Y010039D01*
X016607Y010039D01*
X016607Y010739D01*
X016595Y010739D01*
X017235Y011379D01*
X017377Y011379D01*
X017477Y011479D01*
X017508Y011479D01*
X017696Y011557D01*
X017839Y011700D01*
X017917Y011887D01*
X020897Y011887D01*
X020974Y011700D01*
X021118Y011557D01*
X021305Y011479D01*
X021508Y011479D01*
X021696Y011557D01*
X021839Y011700D01*
X021917Y011887D01*
X022442Y011887D01*
X022400Y011986D02*
X021917Y011986D01*
X021917Y012084D02*
X022349Y012084D01*
X022399Y011989D02*
X022539Y011658D01*
X022654Y011318D01*
X022743Y010970D01*
X022805Y010616D01*
X022839Y010258D01*
X022846Y009899D01*
X022825Y009540D01*
X022777Y009184D01*
X022702Y008833D01*
X022600Y008489D01*
X022472Y008153D01*
X022367Y007929D01*
X022367Y008130D01*
X022259Y008391D01*
X022059Y008591D01*
X021798Y008699D01*
X021516Y008699D01*
X021255Y008591D01*
X021055Y008391D01*
X020947Y008130D01*
X020947Y007848D01*
X021055Y007587D01*
X021255Y007387D01*
X021516Y007279D01*
X021798Y007279D01*
X022053Y007385D01*
X021940Y007218D01*
X021717Y006936D01*
X021473Y006673D01*
X021209Y006429D01*
X020928Y006205D01*
X020667Y006029D01*
X020667Y006190D01*
X020589Y006378D01*
X020446Y006521D01*
X020258Y006599D01*
X020055Y006599D01*
X019868Y006521D01*
X019724Y006378D01*
X019647Y006190D01*
X019647Y005987D01*
X019724Y005800D01*
X019868Y005657D01*
X019907Y005641D01*
X019657Y005546D01*
X019313Y005444D01*
X018961Y005369D01*
X018605Y005321D01*
X018247Y005300D01*
X017887Y005307D01*
X017530Y005341D01*
X017176Y005403D01*
X016828Y005491D01*
X016487Y005606D01*
X016407Y005641D01*
X016446Y005657D01*
X016589Y005800D01*
X016667Y005987D01*
X016667Y006190D01*
X016589Y006378D01*
X016567Y006400D01*
X016567Y007279D01*
X016798Y007279D01*
X017059Y007387D01*
X017259Y007587D01*
X017367Y007848D01*
X017367Y008130D01*
X017259Y008391D01*
X017059Y008591D01*
X016798Y008699D01*
X016516Y008699D01*
X016255Y008591D01*
X016055Y008391D01*
X015947Y008130D01*
X015947Y008099D01*
X015498Y008099D01*
X015644Y008159D01*
X015936Y008451D01*
X016094Y008833D01*
X016094Y008989D01*
X016094Y009128D02*
X022765Y009128D01*
X022783Y009226D02*
X016094Y009226D01*
X016061Y009325D02*
X016300Y009325D01*
X016232Y009353D02*
X016021Y009564D01*
X015907Y009840D01*
X015907Y009939D01*
X016607Y009939D01*
X016707Y009939D01*
X016707Y010039D01*
X017407Y010039D01*
X017407Y010138D01*
X017293Y010414D01*
X017082Y010625D01*
X016806Y010739D01*
X016707Y010739D01*
X016707Y010039D01*
X016607Y010039D01*
X016607Y009939D01*
X016607Y009239D01*
X016508Y009239D01*
X016232Y009353D01*
X016162Y009423D02*
X016020Y009423D01*
X015980Y009522D02*
X016063Y009522D01*
X015998Y009621D02*
X015939Y009621D01*
X015957Y009719D02*
X015844Y009719D01*
X015916Y009818D02*
X015745Y009818D01*
X015647Y009916D02*
X015907Y009916D01*
X015871Y010015D02*
X016607Y010015D01*
X016607Y010113D02*
X016707Y010113D01*
X016707Y010015D02*
X020947Y010015D01*
X020947Y010113D02*
X017407Y010113D01*
X017376Y010212D02*
X020981Y010212D01*
X020947Y010130D02*
X021055Y010391D01*
X021255Y010591D01*
X021516Y010699D01*
X021798Y010699D01*
X022059Y010591D01*
X022259Y010391D01*
X022367Y010130D01*
X022367Y009848D01*
X022259Y009587D01*
X022059Y009387D01*
X021798Y009279D01*
X021516Y009279D01*
X021255Y009387D01*
X021055Y009587D01*
X020947Y009848D01*
X020947Y010130D01*
X021021Y010310D02*
X017336Y010310D01*
X017295Y010409D02*
X021073Y010409D01*
X021171Y010507D02*
X017199Y010507D01*
X017100Y010606D02*
X021291Y010606D01*
X020947Y009916D02*
X017407Y009916D01*
X017407Y009939D02*
X016707Y009939D01*
X016707Y009239D01*
X016806Y009239D01*
X017082Y009353D01*
X017293Y009564D01*
X017407Y009840D01*
X017407Y009939D01*
X017398Y009818D02*
X020959Y009818D01*
X021000Y009719D02*
X017357Y009719D01*
X017316Y009621D02*
X021041Y009621D01*
X021120Y009522D02*
X017250Y009522D01*
X017152Y009423D02*
X021218Y009423D01*
X021405Y009325D02*
X017013Y009325D01*
X016707Y009325D02*
X016607Y009325D01*
X016607Y009423D02*
X016707Y009423D01*
X016707Y009522D02*
X016607Y009522D01*
X016607Y009621D02*
X016707Y009621D01*
X016707Y009719D02*
X016607Y009719D01*
X016607Y009818D02*
X016707Y009818D01*
X016707Y009916D02*
X016607Y009916D01*
X016607Y010212D02*
X016707Y010212D01*
X016707Y010310D02*
X016607Y010310D01*
X016607Y010409D02*
X016707Y010409D01*
X016707Y010507D02*
X016607Y010507D01*
X016607Y010606D02*
X016707Y010606D01*
X016707Y010704D02*
X016607Y010704D01*
X016659Y010803D02*
X022772Y010803D01*
X022789Y010704D02*
X016889Y010704D01*
X016758Y010902D02*
X022755Y010902D01*
X022735Y011000D02*
X016856Y011000D01*
X016955Y011099D02*
X022710Y011099D01*
X022685Y011197D02*
X017053Y011197D01*
X017152Y011296D02*
X022660Y011296D01*
X022629Y011394D02*
X017392Y011394D01*
X017542Y011493D02*
X021272Y011493D01*
X021083Y011591D02*
X017730Y011591D01*
X017829Y011690D02*
X020985Y011690D01*
X020938Y011788D02*
X017876Y011788D01*
X017917Y011887D02*
X017917Y012090D01*
X017839Y012278D01*
X017696Y012421D01*
X017532Y012489D01*
X017696Y012557D01*
X017839Y012700D01*
X017917Y012887D01*
X017917Y013090D01*
X017917Y013091D01*
X018797Y012211D01*
X018978Y012029D01*
X020787Y012029D01*
X020897Y011919D01*
X020897Y011887D01*
X020830Y011986D02*
X017917Y011986D01*
X017917Y012084D02*
X018923Y012084D01*
X018825Y012183D02*
X017879Y012183D01*
X017836Y012281D02*
X018726Y012281D01*
X018628Y012380D02*
X017737Y012380D01*
X017716Y012577D02*
X018431Y012577D01*
X018529Y012478D02*
X017558Y012478D01*
X017814Y012675D02*
X018332Y012675D01*
X018234Y012774D02*
X017870Y012774D01*
X017911Y012872D02*
X018135Y012872D01*
X018036Y012971D02*
X017917Y012971D01*
X017917Y013070D02*
X017938Y013070D01*
X018341Y014154D02*
X018373Y014154D01*
X018414Y014252D02*
X018300Y014252D01*
X018216Y014351D02*
X018497Y014351D01*
X018635Y014449D02*
X018079Y014449D01*
X017635Y014449D02*
X017174Y014449D01*
X017273Y014351D02*
X017497Y014351D01*
X017414Y014252D02*
X017343Y014252D01*
X016895Y014252D02*
X016818Y014252D01*
X016818Y014154D02*
X016895Y014154D01*
X016895Y014055D02*
X016818Y014055D01*
X016818Y014351D02*
X016895Y014351D01*
X016895Y014449D02*
X016818Y014449D01*
X016539Y014449D02*
X016267Y014449D01*
X016267Y014351D02*
X016441Y014351D01*
X016371Y014252D02*
X016267Y014252D01*
X016267Y014154D02*
X016330Y014154D01*
X016267Y014548D02*
X020715Y014548D01*
X020685Y014646D02*
X016267Y014646D01*
X016267Y014745D02*
X020656Y014745D01*
X020636Y014843D02*
X016267Y014843D01*
X016267Y014942D02*
X020617Y014942D01*
X020598Y015040D02*
X016267Y015040D01*
X016267Y015139D02*
X020588Y015139D01*
X020578Y015237D02*
X016267Y015237D01*
X016267Y015336D02*
X020569Y015336D01*
X020568Y015435D02*
X016314Y015435D01*
X016355Y015533D02*
X020568Y015533D01*
X020568Y015632D02*
X016365Y015632D01*
X016361Y015730D02*
X020577Y015730D01*
X020587Y015829D02*
X016320Y015829D01*
X016246Y015927D02*
X020597Y015927D01*
X020615Y016026D02*
X016089Y016026D01*
X015231Y016124D02*
X020634Y016124D01*
X020654Y016223D02*
X018529Y016223D01*
X018628Y016321D02*
X020682Y016321D01*
X020712Y016420D02*
X018868Y016420D01*
X019054Y016519D02*
X019660Y016519D01*
X019507Y016617D02*
X019206Y016617D01*
X019296Y016716D02*
X019418Y016716D01*
X019377Y016814D02*
X019336Y016814D01*
X019047Y017462D02*
X018958Y017499D01*
X018755Y017499D01*
X018568Y017421D01*
X018424Y017278D01*
X018357Y017114D01*
X018289Y017278D01*
X018146Y017421D01*
X017958Y017499D01*
X017755Y017499D01*
X017568Y017421D01*
X017424Y017278D01*
X017357Y017114D01*
X017289Y017278D01*
X017146Y017421D01*
X016958Y017499D01*
X016947Y017499D01*
X018377Y018929D01*
X019047Y018929D01*
X019047Y018500D01*
X019024Y018478D01*
X018947Y018290D01*
X018947Y018087D01*
X019024Y017900D01*
X019047Y017878D01*
X019047Y017559D01*
X019047Y017462D01*
X019047Y017504D02*
X016952Y017504D01*
X017050Y017603D02*
X019047Y017603D01*
X019047Y017701D02*
X017149Y017701D01*
X017247Y017800D02*
X019047Y017800D01*
X019026Y017898D02*
X017346Y017898D01*
X017444Y017997D02*
X018984Y017997D01*
X018947Y018095D02*
X017543Y018095D01*
X017641Y018194D02*
X018947Y018194D01*
X018948Y018292D02*
X017740Y018292D01*
X017839Y018391D02*
X018988Y018391D01*
X019036Y018489D02*
X017937Y018489D01*
X018036Y018588D02*
X019047Y018588D01*
X019047Y018686D02*
X018134Y018686D01*
X018233Y018785D02*
X019047Y018785D01*
X019047Y018884D02*
X018331Y018884D01*
X017763Y019475D02*
X015559Y019475D01*
X015461Y019573D02*
X017861Y019573D01*
X017960Y019672D02*
X015367Y019672D01*
X015367Y019770D02*
X019370Y019770D01*
X019743Y019770D02*
X019915Y019770D01*
X020327Y019770D02*
X020387Y019770D01*
X020387Y019672D02*
X020327Y019672D01*
X020327Y019573D02*
X020387Y019573D01*
X020387Y019475D02*
X020327Y019475D01*
X020327Y019376D02*
X020387Y019376D01*
X020387Y019309D02*
X020867Y019309D01*
X020867Y018975D01*
X020720Y018829D01*
X020387Y018829D01*
X020387Y019309D01*
X020387Y019278D02*
X020327Y019278D01*
X020327Y019179D02*
X020387Y019179D01*
X020387Y019081D02*
X020327Y019081D01*
X020327Y018982D02*
X020387Y018982D01*
X020387Y018884D02*
X020327Y018884D01*
X020422Y018686D02*
X020492Y018686D01*
X020492Y018588D02*
X020422Y018588D01*
X020422Y018489D02*
X020492Y018489D01*
X020492Y018391D02*
X020422Y018391D01*
X020422Y018292D02*
X020492Y018292D01*
X020492Y018194D02*
X021918Y018194D01*
X021847Y018095D02*
X021007Y018095D01*
X021007Y018080D02*
X021007Y018154D01*
X020492Y018154D01*
X020492Y017639D01*
X020566Y017639D01*
X020768Y017723D01*
X020923Y017877D01*
X021007Y018080D01*
X020972Y017997D02*
X021764Y017997D01*
X021680Y017898D02*
X020932Y017898D01*
X020845Y017800D02*
X021595Y017800D01*
X021500Y017701D02*
X020716Y017701D01*
X020492Y017701D02*
X020422Y017701D01*
X020422Y017800D02*
X020492Y017800D01*
X020492Y017898D02*
X020422Y017898D01*
X020422Y017997D02*
X020492Y017997D01*
X020492Y018095D02*
X020422Y018095D01*
X020068Y017800D02*
X019867Y017800D01*
X019867Y017701D02*
X020198Y017701D01*
X019982Y017898D02*
X019887Y017898D01*
X019929Y017997D02*
X019941Y017997D01*
X019867Y017603D02*
X021403Y017603D01*
X021315Y017504D02*
X019922Y017504D01*
X020162Y017405D02*
X021234Y017405D01*
X021173Y017331D02*
X021173Y017331D01*
X021157Y017307D02*
X020260Y017307D01*
X020318Y017208D02*
X021091Y017208D01*
X021026Y017110D02*
X020359Y017110D01*
X020367Y017011D02*
X020969Y017011D01*
X020916Y016913D02*
X020367Y016913D01*
X020336Y016814D02*
X020863Y016814D01*
X020822Y016716D02*
X020296Y016716D01*
X020206Y016617D02*
X020781Y016617D01*
X020742Y016519D02*
X020054Y016519D01*
X018552Y017405D02*
X018162Y017405D01*
X018260Y017307D02*
X018454Y017307D01*
X018396Y017208D02*
X018318Y017208D01*
X017552Y017405D02*
X017162Y017405D01*
X017260Y017307D02*
X017454Y017307D01*
X017396Y017208D02*
X017318Y017208D01*
X016217Y017929D02*
X015587Y017299D01*
X014405Y017299D01*
X014785Y017679D01*
X014927Y017679D01*
X015177Y017929D01*
X015268Y017929D01*
X015474Y018014D01*
X015597Y018137D01*
X015597Y018052D01*
X015720Y017929D01*
X016217Y017929D01*
X016186Y017898D02*
X015146Y017898D01*
X015047Y017800D02*
X016088Y017800D01*
X015989Y017701D02*
X014949Y017701D01*
X014709Y017603D02*
X015891Y017603D01*
X015792Y017504D02*
X014610Y017504D01*
X014512Y017405D02*
X015694Y017405D01*
X015595Y017307D02*
X014413Y017307D01*
X013931Y017701D02*
X012696Y017701D01*
X012694Y017699D02*
X012703Y017708D01*
X012765Y017858D01*
X012765Y017909D01*
X013967Y019111D01*
X013967Y019319D01*
X014067Y019419D01*
X014067Y019628D01*
X014089Y019650D01*
X014157Y019813D01*
X014224Y019650D01*
X014368Y019507D01*
X014555Y019429D01*
X014587Y019429D01*
X014787Y019229D01*
X014928Y019229D01*
X015109Y019049D01*
X015045Y019049D01*
X014840Y018964D01*
X014682Y018806D01*
X014597Y018600D01*
X014597Y018509D01*
X014347Y018259D01*
X014347Y018117D01*
X013928Y017699D01*
X012694Y017699D01*
X012741Y017800D02*
X014029Y017800D01*
X014128Y017898D02*
X012765Y017898D01*
X012853Y017997D02*
X014226Y017997D01*
X014325Y018095D02*
X012951Y018095D01*
X013050Y018194D02*
X014347Y018194D01*
X014380Y018292D02*
X013149Y018292D01*
X013247Y018391D02*
X014479Y018391D01*
X014577Y018489D02*
X013346Y018489D01*
X013444Y018588D02*
X014597Y018588D01*
X014633Y018686D02*
X013543Y018686D01*
X013641Y018785D02*
X014673Y018785D01*
X014759Y018884D02*
X013740Y018884D01*
X013838Y018982D02*
X014884Y018982D01*
X015077Y019081D02*
X013937Y019081D01*
X013967Y019179D02*
X014978Y019179D01*
X014738Y019278D02*
X013967Y019278D01*
X014024Y019376D02*
X014640Y019376D01*
X014445Y019475D02*
X014067Y019475D01*
X014067Y019573D02*
X014301Y019573D01*
X014215Y019672D02*
X014098Y019672D01*
X014139Y019770D02*
X014175Y019770D01*
X014715Y020460D02*
X016181Y020460D01*
X016083Y020559D02*
X014617Y020559D01*
X014518Y020657D02*
X016026Y020657D01*
X015985Y020756D02*
X014278Y020756D01*
X014955Y020362D02*
X016316Y020362D01*
X015947Y020854D02*
X009407Y020854D01*
X009372Y020756D02*
X010535Y020756D01*
X010437Y020657D02*
X009331Y020657D01*
X009287Y020559D02*
X010338Y020559D01*
X010240Y020460D02*
X009189Y020460D01*
X009090Y020362D02*
X010141Y020362D01*
X010043Y020263D02*
X008864Y020263D01*
X008607Y020953D02*
X007617Y020953D01*
X007617Y020854D02*
X007907Y020854D01*
X007942Y020756D02*
X007617Y020756D01*
X007617Y020657D02*
X007982Y020657D01*
X008026Y020559D02*
X007617Y020559D01*
X007617Y020460D02*
X008125Y020460D01*
X008223Y020362D02*
X007617Y020362D01*
X007617Y021052D02*
X007907Y021052D01*
X007912Y021150D02*
X007617Y021150D01*
X007617Y021249D02*
X007953Y021249D01*
X007993Y021347D02*
X007617Y021347D01*
X007617Y021446D02*
X008053Y021446D01*
X008151Y021544D02*
X007617Y021544D01*
X007617Y021643D02*
X008276Y021643D01*
X008607Y021643D02*
X008707Y021643D01*
X008707Y021544D02*
X008607Y021544D01*
X008607Y021446D02*
X008707Y021446D01*
X008707Y021347D02*
X008607Y021347D01*
X008607Y021249D02*
X008707Y021249D01*
X008707Y021150D02*
X008607Y021150D01*
X008607Y021052D02*
X008707Y021052D01*
X009038Y021643D02*
X009546Y021643D01*
X009587Y021741D02*
X007617Y021741D01*
X008928Y022333D02*
X009549Y022333D01*
X009547Y022431D02*
X009103Y022431D01*
X009202Y022530D02*
X009547Y022530D01*
X009583Y022628D02*
X009276Y022628D01*
X009317Y022727D02*
X009624Y022727D01*
X009722Y022825D02*
X009358Y022825D01*
X009572Y022924D02*
X009895Y022924D01*
X010219Y022924D02*
X015947Y022924D01*
X015947Y022848D02*
X016055Y022587D01*
X016255Y022387D01*
X016516Y022279D01*
X016798Y022279D01*
X017059Y022387D01*
X017259Y022587D01*
X017367Y022848D01*
X017367Y023130D01*
X017259Y023391D01*
X017059Y023591D01*
X016798Y023699D01*
X016516Y023699D01*
X016255Y023591D01*
X016055Y023391D01*
X015947Y023130D01*
X015947Y022848D01*
X015956Y022825D02*
X010392Y022825D01*
X010490Y022727D02*
X015997Y022727D01*
X016038Y022628D02*
X010530Y022628D01*
X010567Y022530D02*
X016112Y022530D01*
X016211Y022431D02*
X010567Y022431D01*
X010565Y022333D02*
X016386Y022333D01*
X016928Y022333D02*
X021386Y022333D01*
X021211Y022431D02*
X017103Y022431D01*
X017202Y022530D02*
X021112Y022530D01*
X021038Y022628D02*
X017276Y022628D01*
X017317Y022727D02*
X020997Y022727D01*
X020956Y022825D02*
X017358Y022825D01*
X017367Y022924D02*
X020947Y022924D01*
X020947Y023022D02*
X017367Y023022D01*
X017367Y023121D02*
X020947Y023121D01*
X020984Y023219D02*
X017330Y023219D01*
X017289Y023318D02*
X021025Y023318D01*
X021080Y023417D02*
X017233Y023417D01*
X017135Y023515D02*
X021179Y023515D01*
X021310Y023614D02*
X017004Y023614D01*
X016556Y024008D02*
X021741Y024008D01*
X021657Y024106D02*
X016567Y024106D01*
X016567Y024205D02*
X021568Y024205D01*
X021470Y024303D02*
X016567Y024303D01*
X016567Y024402D02*
X020000Y024402D01*
X019824Y024501D02*
X016567Y024501D01*
X016588Y024599D02*
X019725Y024599D01*
X019684Y024698D02*
X016630Y024698D01*
X016667Y024796D02*
X019647Y024796D01*
X019647Y024895D02*
X016667Y024895D01*
X016666Y024993D02*
X019648Y024993D01*
X019689Y025092D02*
X016625Y025092D01*
X016577Y025190D02*
X019737Y025190D01*
X019836Y025289D02*
X016478Y025289D01*
X016530Y025387D02*
X019783Y025387D01*
X019481Y025486D02*
X016832Y025486D01*
X017225Y025585D02*
X019089Y025585D01*
X020314Y024402D02*
X021371Y024402D01*
X021261Y024501D02*
X020490Y024501D01*
X020588Y024599D02*
X021145Y024599D01*
X021025Y024698D02*
X020630Y024698D01*
X020667Y024796D02*
X020889Y024796D01*
X020752Y024895D02*
X020667Y024895D01*
X021825Y023909D02*
X016457Y023909D01*
X016358Y023811D02*
X021899Y023811D01*
X021971Y023712D02*
X016118Y023712D01*
X016020Y023614D02*
X016310Y023614D01*
X016179Y023515D02*
X015921Y023515D01*
X015823Y023417D02*
X016080Y023417D01*
X016025Y023318D02*
X015724Y023318D01*
X015626Y023219D02*
X015984Y023219D01*
X015947Y023121D02*
X015527Y023121D01*
X015429Y023022D02*
X015947Y023022D01*
X015242Y023712D02*
X015115Y023712D01*
X015089Y023650D02*
X015038Y023599D01*
X015128Y023599D01*
X015747Y024217D01*
X015747Y024578D01*
X015724Y024600D01*
X015647Y024787D01*
X015647Y024947D01*
X015551Y024888D01*
X015253Y024672D01*
X014973Y024433D01*
X014920Y024382D01*
X014946Y024371D01*
X015089Y024228D01*
X015167Y024040D01*
X015167Y023837D01*
X015089Y023650D01*
X015053Y023614D02*
X015143Y023614D01*
X015156Y023811D02*
X015340Y023811D01*
X015439Y023909D02*
X015167Y023909D01*
X015167Y024008D02*
X015537Y024008D01*
X015636Y024106D02*
X015140Y024106D01*
X015099Y024205D02*
X015734Y024205D01*
X015747Y024303D02*
X015014Y024303D01*
X014941Y024402D02*
X015747Y024402D01*
X015747Y024501D02*
X015053Y024501D01*
X015168Y024599D02*
X015725Y024599D01*
X015684Y024698D02*
X015289Y024698D01*
X015424Y024796D02*
X015647Y024796D01*
X015647Y024895D02*
X015562Y024895D01*
X013797Y024895D02*
X013412Y024895D01*
X013430Y024917D02*
X013374Y024849D01*
X013374Y024849D01*
X013313Y024786D01*
X013313Y024786D01*
X013247Y024729D01*
X013247Y024729D01*
X013175Y024679D01*
X013175Y024679D01*
X013099Y024635D01*
X013099Y024635D01*
X013020Y024598D01*
X013020Y024598D01*
X012937Y024569D01*
X012937Y024569D01*
X012853Y024547D01*
X012852Y024547D01*
X012766Y024533D01*
X012766Y024533D01*
X012679Y024527D01*
X012679Y024527D01*
X012591Y024529D01*
X012591Y024529D01*
X012504Y024539D01*
X012504Y024539D01*
X012419Y024557D01*
X012419Y024557D01*
X012335Y024583D01*
X012335Y024583D01*
X012254Y024616D01*
X012176Y024656D01*
X012102Y024703D01*
X012033Y024757D01*
X011969Y024817D01*
X011969Y024817D01*
X011911Y024882D01*
X011911Y024882D01*
X011859Y024952D01*
X011813Y025027D01*
X011775Y025106D01*
X011744Y025188D01*
X011720Y025272D01*
X011720Y025272D01*
X011704Y025358D01*
X011704Y025358D01*
X011696Y025445D01*
X011696Y025445D01*
X011696Y025533D01*
X011696Y025533D01*
X011704Y025620D01*
X011704Y025620D01*
X011720Y025706D01*
X011720Y025706D01*
X011744Y025790D01*
X011744Y025790D01*
X011775Y025872D01*
X011775Y025872D01*
X011813Y025951D01*
X011813Y025951D01*
X011859Y026026D01*
X011859Y026026D01*
X011911Y026096D01*
X011911Y026096D01*
X011969Y026161D01*
X011969Y026161D01*
X012033Y026221D01*
X012033Y026221D01*
X012102Y026275D01*
X012102Y026275D01*
X012176Y026322D01*
X012176Y026322D01*
X012254Y026362D01*
X012254Y026362D01*
X012335Y026395D01*
X012335Y026395D01*
X012419Y026421D01*
X012419Y026421D01*
X012504Y026439D01*
X012504Y026439D01*
X012591Y026448D01*
X012591Y026448D01*
X012679Y026450D01*
X012679Y026450D01*
X012766Y026444D01*
X012766Y026444D01*
X012852Y026431D01*
X012853Y026431D01*
X012937Y026409D01*
X012937Y026409D01*
X013020Y026380D01*
X013020Y026380D01*
X013099Y026343D01*
X013099Y026343D01*
X013175Y026299D01*
X013247Y026249D01*
X013313Y026192D01*
X013374Y026129D01*
X013374Y026129D01*
X013430Y026061D01*
X013479Y025989D01*
X013521Y025912D01*
X013555Y025832D01*
X013583Y025748D01*
X013603Y025663D01*
X013615Y025576D01*
X013615Y025576D01*
X013619Y025489D01*
X013615Y025402D01*
X013615Y025401D01*
X013603Y025315D01*
X013603Y025315D01*
X013583Y025229D01*
X013583Y025229D01*
X013555Y025146D01*
X013555Y025146D01*
X013521Y025066D01*
X013521Y025066D01*
X013479Y024989D01*
X013479Y024989D01*
X013430Y024917D01*
X013430Y024917D01*
X013481Y024993D02*
X013797Y024993D01*
X013797Y025092D02*
X013532Y025092D01*
X013570Y025190D02*
X013797Y025190D01*
X013797Y025289D02*
X013597Y025289D01*
X013613Y025387D02*
X013797Y025387D01*
X013797Y025486D02*
X013618Y025486D01*
X013614Y025585D02*
X013792Y025585D01*
X013794Y025567D02*
X013797Y025489D01*
X013797Y024665D01*
X013780Y024639D01*
X013797Y024561D01*
X013797Y024481D01*
X013825Y024454D01*
X013843Y024414D01*
X013758Y024449D01*
X013555Y024449D01*
X013368Y024371D01*
X013224Y024228D01*
X013157Y024064D01*
X013089Y024228D01*
X012946Y024371D01*
X012758Y024449D01*
X012555Y024449D01*
X012368Y024371D01*
X012346Y024349D01*
X011968Y024349D01*
X011946Y024371D01*
X011758Y024449D01*
X011555Y024449D01*
X011471Y024414D01*
X011489Y024454D01*
X011517Y024481D01*
X011517Y024561D01*
X011534Y024639D01*
X011517Y024665D01*
X011517Y025381D01*
X011517Y025489D01*
X011519Y025567D01*
X011541Y025721D01*
X011583Y025871D01*
X011645Y026013D01*
X011725Y026146D01*
X011824Y026267D01*
X011937Y026373D01*
X012280Y026373D01*
X012203Y026535D02*
X012349Y026587D01*
X012502Y026618D01*
X012657Y026629D01*
X012812Y026618D01*
X012964Y026587D01*
X013111Y026535D01*
X013249Y026463D01*
X013376Y026373D01*
X013490Y026267D01*
X013588Y026146D01*
X013669Y026013D01*
X013731Y025871D01*
X013773Y025721D01*
X013794Y025567D01*
X013794Y025567D01*
X013778Y025683D02*
X013598Y025683D01*
X013572Y025782D02*
X013756Y025782D01*
X013727Y025880D02*
X013534Y025880D01*
X013484Y025979D02*
X013684Y025979D01*
X013630Y026077D02*
X013417Y026077D01*
X013329Y026176D02*
X013564Y026176D01*
X013482Y026274D02*
X013210Y026274D01*
X013377Y026373D02*
X013034Y026373D01*
X013011Y026570D02*
X012302Y026570D01*
X012203Y026535D02*
X012064Y026463D01*
X011937Y026373D01*
X011831Y026274D02*
X012102Y026274D01*
X011985Y026176D02*
X011749Y026176D01*
X011683Y026077D02*
X011897Y026077D01*
X011830Y025979D02*
X011630Y025979D01*
X011587Y025880D02*
X011779Y025880D01*
X011741Y025782D02*
X011558Y025782D01*
X011535Y025683D02*
X011716Y025683D01*
X011701Y025585D02*
X011522Y025585D01*
X011517Y025486D02*
X011696Y025486D01*
X011701Y025387D02*
X011517Y025387D01*
X011517Y025289D02*
X011717Y025289D01*
X011743Y025190D02*
X011517Y025190D01*
X011517Y025092D02*
X011781Y025092D01*
X011834Y024993D02*
X011517Y024993D01*
X011517Y024895D02*
X011901Y024895D01*
X011991Y024796D02*
X011517Y024796D01*
X011517Y024698D02*
X012111Y024698D01*
X012295Y024599D02*
X011525Y024599D01*
X011517Y024501D02*
X013797Y024501D01*
X013788Y024599D02*
X013021Y024599D01*
X013202Y024698D02*
X013797Y024698D01*
X013797Y024796D02*
X013323Y024796D01*
X013313Y024786D02*
X013313Y024786D01*
X013442Y024402D02*
X012872Y024402D01*
X013014Y024303D02*
X013300Y024303D01*
X013215Y024205D02*
X013099Y024205D01*
X013139Y024106D02*
X013174Y024106D01*
X012442Y024402D02*
X011872Y024402D01*
X010372Y024402D02*
X009314Y024402D01*
X009490Y024501D02*
X010261Y024501D01*
X010344Y024430D02*
X010344Y024430D01*
X010146Y024599D02*
X009588Y024599D01*
X009630Y024698D02*
X010024Y024698D01*
X009890Y024796D02*
X009667Y024796D01*
X009667Y024895D02*
X009751Y024895D01*
X009000Y024402D02*
X005314Y024402D01*
X005490Y024501D02*
X008824Y024501D01*
X008725Y024599D02*
X005588Y024599D01*
X005630Y024698D02*
X008684Y024698D01*
X008647Y024796D02*
X005667Y024796D01*
X005667Y024895D02*
X008647Y024895D01*
X008648Y024993D02*
X005666Y024993D01*
X005625Y025092D02*
X008689Y025092D01*
X008737Y025190D02*
X005577Y025190D01*
X005478Y025289D02*
X008836Y025289D01*
X008779Y025387D02*
X005539Y025387D01*
X005838Y025486D02*
X008487Y025486D01*
X008083Y025585D02*
X006237Y025585D01*
X005000Y024402D02*
X003945Y024402D01*
X003839Y024303D02*
X008042Y024303D01*
X007943Y024205D02*
X003748Y024205D01*
X003657Y024106D02*
X007844Y024106D01*
X007746Y024008D02*
X003570Y024008D01*
X003492Y023909D02*
X007647Y023909D01*
X007549Y023811D02*
X003414Y023811D01*
X003341Y023712D02*
X007450Y023712D01*
X004824Y024501D02*
X004052Y024501D01*
X004167Y024599D02*
X004725Y024599D01*
X004684Y024698D02*
X004291Y024698D01*
X004421Y024796D02*
X004647Y024796D01*
X004647Y024895D02*
X004567Y024895D01*
X003310Y023614D02*
X003274Y023614D01*
X002947Y023022D02*
X002934Y023022D01*
X002947Y022924D02*
X002888Y022924D01*
X002841Y022825D02*
X002956Y022825D01*
X002997Y022727D02*
X002804Y022727D01*
X002766Y022628D02*
X003038Y022628D01*
X003112Y022530D02*
X002729Y022530D01*
X002696Y022431D02*
X003211Y022431D01*
X003386Y022333D02*
X002667Y022333D01*
X002516Y021643D02*
X003380Y021643D01*
X003208Y021544D02*
X002503Y021544D01*
X002490Y021446D02*
X003109Y021446D01*
X003037Y021347D02*
X002483Y021347D01*
X002478Y021249D02*
X002996Y021249D01*
X002955Y021150D02*
X002472Y021150D01*
X002468Y021052D02*
X002947Y021052D01*
X002947Y020953D02*
X002470Y020953D01*
X002472Y020854D02*
X002947Y020854D01*
X002985Y020756D02*
X002474Y020756D01*
X002481Y020657D02*
X003026Y020657D01*
X003083Y020559D02*
X002490Y020559D01*
X002500Y020460D02*
X003181Y020460D01*
X003316Y020362D02*
X002509Y020362D01*
X004042Y018785D02*
X006797Y018785D01*
X006797Y018686D02*
X004231Y018686D01*
X004329Y018588D02*
X006797Y018588D01*
X006797Y018489D02*
X004376Y018489D01*
X004417Y018391D02*
X006797Y018391D01*
X006797Y018292D02*
X004417Y018292D01*
X004417Y018194D02*
X006797Y018194D01*
X006797Y018095D02*
X004379Y018095D01*
X004336Y017997D02*
X006797Y017997D01*
X006797Y017898D02*
X004237Y017898D01*
X004058Y017800D02*
X006797Y017800D01*
X006772Y017701D02*
X005424Y017701D01*
X005564Y017603D02*
X006697Y017603D01*
X006697Y017504D02*
X005649Y017504D01*
X005690Y017405D02*
X006697Y017405D01*
X006697Y017307D02*
X005717Y017307D01*
X005717Y017208D02*
X006697Y017208D01*
X006697Y017110D02*
X005705Y017110D01*
X005664Y017011D02*
X006697Y017011D01*
X006697Y016913D02*
X005617Y016913D01*
X005617Y016814D02*
X006735Y016814D01*
X006797Y016716D02*
X005617Y016716D01*
X005617Y016617D02*
X006797Y016617D01*
X006797Y016519D02*
X005617Y016519D01*
X005617Y016420D02*
X006797Y016420D01*
X006797Y016321D02*
X006714Y016321D01*
X006445Y016321D02*
X006368Y016321D01*
X006368Y016223D02*
X006445Y016223D01*
X006445Y016124D02*
X006368Y016124D01*
X006368Y016026D02*
X006445Y016026D01*
X006445Y015927D02*
X006368Y015927D01*
X006100Y016321D02*
X005617Y016321D01*
X005617Y016223D02*
X006002Y016223D01*
X005936Y016124D02*
X005701Y016124D01*
X005800Y016026D02*
X005896Y016026D01*
X007642Y017701D02*
X010742Y017701D01*
X010662Y017997D02*
X011949Y017997D01*
X011949Y017898D02*
X008237Y017898D01*
X008058Y017800D02*
X011973Y017800D01*
X012018Y017701D02*
X011272Y017701D01*
X010717Y018095D02*
X011980Y018095D01*
X012035Y018194D02*
X010717Y018194D01*
X010717Y018292D02*
X012144Y018292D01*
X012370Y018391D02*
X010717Y018391D01*
X010717Y018489D02*
X012469Y018489D01*
X012567Y018588D02*
X010717Y018588D01*
X010717Y018686D02*
X012666Y018686D01*
X012765Y018785D02*
X010717Y018785D01*
X010717Y018884D02*
X012863Y018884D01*
X012962Y018982D02*
X010661Y018982D01*
X010131Y019475D02*
X011445Y019475D01*
X011301Y019573D02*
X010230Y019573D01*
X010328Y019672D02*
X011215Y019672D01*
X011175Y019770D02*
X010427Y019770D01*
X010525Y019869D02*
X011147Y019869D01*
X011147Y019968D02*
X010624Y019968D01*
X010722Y020066D02*
X011158Y020066D01*
X011198Y020165D02*
X010821Y020165D01*
X010033Y019376D02*
X013290Y019376D01*
X013257Y019278D02*
X009934Y019278D01*
X009835Y019179D02*
X013159Y019179D01*
X013060Y019081D02*
X009737Y019081D01*
X009653Y018982D02*
X009638Y018982D01*
X009597Y018884D02*
X009567Y018884D01*
X007756Y017800D02*
X007617Y017800D01*
X006797Y018884D02*
X004223Y018884D01*
X004321Y018982D02*
X006797Y018982D01*
X006797Y019081D02*
X004373Y019081D01*
X004413Y019179D02*
X006797Y019179D01*
X006797Y019278D02*
X004417Y019278D01*
X004417Y019376D02*
X006797Y019376D01*
X006797Y019475D02*
X004382Y019475D01*
X004341Y019573D02*
X006797Y019573D01*
X006797Y019672D02*
X004245Y019672D01*
X004077Y019770D02*
X006797Y019770D01*
X010288Y021938D02*
X022748Y021938D01*
X022767Y021840D02*
X010434Y021840D01*
X010527Y021741D02*
X022782Y021741D01*
X022798Y021643D02*
X022038Y021643D01*
X022082Y021625D02*
X021806Y021739D01*
X021707Y021739D01*
X021707Y021039D01*
X022407Y021039D01*
X022407Y021138D01*
X022293Y021414D01*
X022082Y021625D01*
X022162Y021544D02*
X022813Y021544D01*
X022821Y021446D02*
X022261Y021446D01*
X022320Y021347D02*
X022829Y021347D01*
X022837Y021249D02*
X022361Y021249D01*
X022402Y021150D02*
X022843Y021150D01*
X022843Y021052D02*
X022407Y021052D01*
X022407Y020939D02*
X021707Y020939D01*
X021707Y021039D01*
X021607Y021039D01*
X021607Y021739D01*
X021508Y021739D01*
X021232Y021625D01*
X021021Y021414D01*
X020907Y021138D01*
X020907Y021039D01*
X021607Y021039D01*
X021607Y020939D01*
X021707Y020939D01*
X021707Y020239D01*
X021806Y020239D01*
X022082Y020353D01*
X022293Y020564D01*
X022407Y020840D01*
X022407Y020939D01*
X022407Y020854D02*
X022843Y020854D01*
X022839Y020756D02*
X022372Y020756D01*
X022331Y020657D02*
X022831Y020657D01*
X022824Y020559D02*
X022287Y020559D01*
X022189Y020460D02*
X022816Y020460D01*
X022802Y020362D02*
X022090Y020362D01*
X021864Y020263D02*
X022786Y020263D01*
X022771Y020165D02*
X015115Y020165D01*
X015156Y020066D02*
X022755Y020066D01*
X022731Y019968D02*
X015208Y019968D01*
X015307Y019869D02*
X022707Y019869D01*
X022684Y019770D02*
X020799Y019770D01*
X020867Y019672D02*
X022656Y019672D01*
X022624Y019573D02*
X020867Y019573D01*
X020867Y019475D02*
X022592Y019475D01*
X022560Y019376D02*
X020867Y019376D01*
X020867Y019278D02*
X022520Y019278D01*
X022479Y019179D02*
X020867Y019179D01*
X020867Y019081D02*
X022439Y019081D01*
X022394Y018982D02*
X020867Y018982D01*
X020775Y018884D02*
X022344Y018884D01*
X022293Y018785D02*
X019867Y018785D01*
X019867Y018686D02*
X020221Y018686D01*
X020078Y018588D02*
X019867Y018588D01*
X019878Y018489D02*
X019986Y018489D01*
X019945Y018391D02*
X019925Y018391D01*
X019939Y018884D02*
X019867Y018884D01*
X020693Y018686D02*
X022242Y018686D01*
X022182Y018588D02*
X020836Y018588D01*
X020928Y018489D02*
X022121Y018489D01*
X022061Y018391D02*
X020969Y018391D01*
X021007Y018292D02*
X021990Y018292D01*
X021607Y020239D02*
X021508Y020239D01*
X021232Y020353D01*
X021021Y020564D01*
X020907Y020840D01*
X020907Y020939D01*
X021607Y020939D01*
X021607Y020239D01*
X021607Y020263D02*
X021707Y020263D01*
X021707Y020362D02*
X021607Y020362D01*
X021607Y020460D02*
X021707Y020460D01*
X021707Y020559D02*
X021607Y020559D01*
X021607Y020657D02*
X021707Y020657D01*
X021707Y020756D02*
X021607Y020756D01*
X021607Y020854D02*
X021707Y020854D01*
X021707Y020953D02*
X022843Y020953D01*
X022725Y022037D02*
X010376Y022037D01*
X010475Y022136D02*
X022701Y022136D01*
X022677Y022234D02*
X010524Y022234D01*
X010568Y021643D02*
X016380Y021643D01*
X016208Y021544D02*
X010607Y021544D01*
X012139Y019770D02*
X012175Y019770D01*
X012215Y019672D02*
X012098Y019672D01*
X012012Y019573D02*
X012301Y019573D01*
X012445Y019475D02*
X011869Y019475D01*
X012869Y019475D02*
X013247Y019475D01*
X013247Y019573D02*
X013012Y019573D01*
X013098Y019672D02*
X013215Y019672D01*
X013175Y019770D02*
X013139Y019770D01*
X015054Y020263D02*
X021449Y020263D01*
X021223Y020362D02*
X016998Y020362D01*
X017132Y020460D02*
X021125Y020460D01*
X021026Y020559D02*
X017231Y020559D01*
X017288Y020657D02*
X020982Y020657D01*
X020942Y020756D02*
X017329Y020756D01*
X017367Y020854D02*
X020907Y020854D01*
X020907Y021052D02*
X017367Y021052D01*
X017359Y021150D02*
X020912Y021150D01*
X020953Y021249D02*
X017318Y021249D01*
X017277Y021347D02*
X020993Y021347D01*
X021053Y021446D02*
X017204Y021446D01*
X017106Y021544D02*
X021151Y021544D01*
X021276Y021643D02*
X016934Y021643D01*
X017367Y020953D02*
X021607Y020953D01*
X021607Y021052D02*
X021707Y021052D01*
X021707Y021150D02*
X021607Y021150D01*
X021607Y021249D02*
X021707Y021249D01*
X021707Y021347D02*
X021607Y021347D01*
X021607Y021446D02*
X021707Y021446D01*
X021707Y021544D02*
X021607Y021544D01*
X021607Y021643D02*
X021707Y021643D01*
X021928Y022333D02*
X022648Y022333D01*
X022616Y022431D02*
X022103Y022431D01*
X022202Y022530D02*
X022584Y022530D01*
X022550Y022628D02*
X022276Y022628D01*
X022317Y022727D02*
X022509Y022727D01*
X022468Y022825D02*
X022358Y022825D01*
X022367Y022924D02*
X022428Y022924D01*
X022380Y023022D02*
X022367Y023022D01*
X022042Y023614D02*
X022004Y023614D01*
X017664Y019376D02*
X015658Y019376D01*
X015756Y019278D02*
X017566Y019278D01*
X017467Y019179D02*
X016046Y019179D01*
X016145Y019081D02*
X017369Y019081D01*
X017270Y018982D02*
X016661Y018982D01*
X016717Y018884D02*
X017172Y018884D01*
X017073Y018785D02*
X016717Y018785D01*
X016717Y018686D02*
X016975Y018686D01*
X016876Y018588D02*
X016717Y018588D01*
X016717Y018489D02*
X016778Y018489D01*
X015652Y017997D02*
X015432Y017997D01*
X015555Y018095D02*
X015597Y018095D01*
X019079Y014449D02*
X019420Y014449D01*
X019347Y014351D02*
X019216Y014351D01*
X019300Y014252D02*
X019347Y014252D01*
X019341Y014154D02*
X019347Y014154D01*
X019347Y013759D02*
X019314Y013759D01*
X019347Y013661D02*
X019267Y013661D01*
X019322Y013562D02*
X019387Y013562D01*
X019420Y013464D02*
X021220Y013464D01*
X021243Y013562D02*
X020327Y013562D01*
X020367Y013661D02*
X021164Y013661D01*
X021173Y013647D02*
X021173Y013647D01*
X021098Y013759D02*
X020367Y013759D01*
X020367Y013858D02*
X021032Y013858D01*
X020974Y013956D02*
X020367Y013956D01*
X020367Y014055D02*
X020921Y014055D01*
X020869Y014154D02*
X020367Y014154D01*
X020367Y014252D02*
X020826Y014252D01*
X020862Y014167D02*
X020862Y014167D01*
X020786Y014351D02*
X020367Y014351D01*
X020294Y014449D02*
X020745Y014449D01*
X021062Y013365D02*
X019519Y013365D01*
X019618Y013267D02*
X020970Y013267D01*
X020929Y013168D02*
X019716Y013168D01*
X019815Y013070D02*
X020897Y013070D01*
X020809Y012971D02*
X019913Y012971D01*
X021532Y012489D02*
X021696Y012557D01*
X021839Y012700D01*
X021890Y012823D01*
X022044Y012613D01*
X022233Y012308D01*
X022399Y011989D01*
X022484Y011788D02*
X021876Y011788D01*
X021917Y011887D02*
X021917Y012090D01*
X021839Y012278D01*
X021696Y012421D01*
X021532Y012489D01*
X021558Y012478D02*
X022127Y012478D01*
X022189Y012380D02*
X021737Y012380D01*
X021836Y012281D02*
X022247Y012281D01*
X022298Y012183D02*
X021879Y012183D01*
X021829Y011690D02*
X022526Y011690D01*
X022562Y011591D02*
X021730Y011591D01*
X021542Y011493D02*
X022595Y011493D01*
X022805Y010606D02*
X022023Y010606D01*
X022142Y010507D02*
X022815Y010507D01*
X022824Y010409D02*
X022241Y010409D01*
X022292Y010310D02*
X022834Y010310D01*
X022840Y010212D02*
X022333Y010212D01*
X022367Y010113D02*
X022842Y010113D01*
X022844Y010015D02*
X022367Y010015D01*
X022367Y009916D02*
X022845Y009916D01*
X022841Y009818D02*
X022354Y009818D01*
X022314Y009719D02*
X022835Y009719D01*
X022830Y009621D02*
X022273Y009621D01*
X022194Y009522D02*
X022823Y009522D01*
X022809Y009423D02*
X022095Y009423D01*
X021909Y009325D02*
X022796Y009325D01*
X022702Y008832D02*
X016094Y008832D01*
X016053Y008734D02*
X022673Y008734D01*
X022643Y008635D02*
X021952Y008635D01*
X022113Y008537D02*
X022614Y008537D01*
X022581Y008438D02*
X022212Y008438D01*
X022280Y008339D02*
X022543Y008339D01*
X022506Y008241D02*
X022321Y008241D01*
X022362Y008142D02*
X022467Y008142D01*
X022421Y008044D02*
X022367Y008044D01*
X022367Y007945D02*
X022374Y007945D01*
X022032Y007354D02*
X021979Y007354D01*
X021966Y007255D02*
X016567Y007255D01*
X016567Y007157D02*
X021892Y007157D01*
X021814Y007058D02*
X016567Y007058D01*
X016567Y006960D02*
X021736Y006960D01*
X021648Y006861D02*
X016567Y006861D01*
X016567Y006763D02*
X021556Y006763D01*
X021464Y006664D02*
X016567Y006664D01*
X016567Y006566D02*
X019975Y006566D01*
X019814Y006467D02*
X016567Y006467D01*
X016593Y006369D02*
X019721Y006369D01*
X019680Y006270D02*
X016634Y006270D01*
X016667Y006171D02*
X019647Y006171D01*
X019647Y006073D02*
X016667Y006073D01*
X016661Y005974D02*
X019652Y005974D01*
X019693Y005876D02*
X016621Y005876D01*
X016566Y005777D02*
X019747Y005777D01*
X019846Y005679D02*
X016468Y005679D01*
X016565Y005580D02*
X019748Y005580D01*
X019441Y005482D02*
X016866Y005482D01*
X017289Y005383D02*
X019029Y005383D01*
X020339Y006566D02*
X021357Y006566D01*
X021251Y006467D02*
X020500Y006467D01*
X020593Y006369D02*
X021134Y006369D01*
X021009Y006270D02*
X020634Y006270D01*
X020667Y006171D02*
X020878Y006171D01*
X020732Y006073D02*
X020667Y006073D01*
X021334Y007354D02*
X016979Y007354D01*
X017125Y007453D02*
X021189Y007453D01*
X021091Y007551D02*
X017223Y007551D01*
X017285Y007650D02*
X021029Y007650D01*
X020988Y007748D02*
X017326Y007748D01*
X017366Y007847D02*
X020947Y007847D01*
X020947Y007945D02*
X017367Y007945D01*
X017367Y008044D02*
X020947Y008044D01*
X020952Y008142D02*
X017362Y008142D01*
X017321Y008241D02*
X020993Y008241D01*
X021034Y008339D02*
X017280Y008339D01*
X017212Y008438D02*
X021102Y008438D01*
X021200Y008537D02*
X017113Y008537D01*
X016952Y008635D02*
X021361Y008635D01*
X021716Y012577D02*
X022066Y012577D01*
X021998Y012675D02*
X021814Y012675D01*
X021870Y012774D02*
X021926Y012774D01*
X016361Y008635D02*
X016012Y008635D01*
X015972Y008537D02*
X016200Y008537D01*
X016102Y008438D02*
X015923Y008438D01*
X015824Y008339D02*
X016034Y008339D01*
X015993Y008241D02*
X015726Y008241D01*
X015603Y008142D02*
X015952Y008142D01*
X015747Y007279D02*
X015747Y006400D01*
X015724Y006378D01*
X015647Y006190D01*
X015647Y006031D01*
X015533Y006102D01*
X015243Y006314D01*
X014970Y006548D01*
X014841Y006673D01*
X014765Y006749D01*
X014764Y006749D01*
X014733Y006780D01*
X014499Y006973D01*
X014246Y007141D01*
X013989Y007279D01*
X015747Y007279D01*
X015747Y007255D02*
X014033Y007255D01*
X014217Y007157D02*
X015747Y007157D01*
X015747Y007058D02*
X014370Y007058D01*
X014514Y006960D02*
X015747Y006960D01*
X015747Y006861D02*
X014634Y006861D01*
X014733Y006780D02*
X014733Y006780D01*
X014751Y006763D02*
X015747Y006763D01*
X015747Y006664D02*
X014850Y006664D01*
X014841Y006673D02*
X014841Y006673D01*
X014952Y006566D02*
X015747Y006566D01*
X015747Y006467D02*
X015065Y006467D01*
X015180Y006369D02*
X015721Y006369D01*
X015680Y006270D02*
X015303Y006270D01*
X015438Y006171D02*
X015647Y006171D01*
X015647Y006073D02*
X015580Y006073D01*
X014511Y008142D02*
X010803Y008142D01*
X010682Y008044D02*
X010565Y008044D01*
X010583Y007945D02*
X009367Y007945D01*
X009367Y007848D02*
X009367Y008130D01*
X009259Y008391D01*
X009059Y008591D01*
X008798Y008699D01*
X008516Y008699D01*
X008255Y008591D01*
X008055Y008391D01*
X007947Y008130D01*
X007947Y007848D01*
X008055Y007587D01*
X008255Y007387D01*
X008516Y007279D01*
X008798Y007279D01*
X009059Y007387D01*
X009259Y007587D01*
X009367Y007848D01*
X009366Y007847D02*
X010485Y007847D01*
X010386Y007748D02*
X009326Y007748D01*
X009285Y007650D02*
X010288Y007650D01*
X010189Y007551D02*
X009223Y007551D01*
X009125Y007453D02*
X010091Y007453D01*
X009992Y007354D02*
X008979Y007354D01*
X009499Y006861D02*
X004964Y006861D01*
X005063Y006763D02*
X009401Y006763D01*
X009302Y006664D02*
X005161Y006664D01*
X005339Y006566D02*
X008975Y006566D01*
X008814Y006467D02*
X005500Y006467D01*
X005593Y006369D02*
X008721Y006369D01*
X008680Y006270D02*
X005634Y006270D01*
X005667Y006171D02*
X008647Y006171D01*
X008647Y006073D02*
X005667Y006073D01*
X005661Y005974D02*
X008652Y005974D01*
X008693Y005876D02*
X005621Y005876D01*
X005566Y005777D02*
X008747Y005777D01*
X008846Y005679D02*
X005468Y005679D01*
X005566Y005580D02*
X008749Y005580D01*
X008448Y005482D02*
X005873Y005482D01*
X006285Y005383D02*
X008024Y005383D01*
X009598Y006960D02*
X004866Y006960D01*
X004767Y007058D02*
X009696Y007058D01*
X009795Y007157D02*
X004669Y007157D01*
X004570Y007255D02*
X009894Y007255D01*
X009948Y008044D02*
X009367Y008044D01*
X009362Y008142D02*
X009711Y008142D01*
X009588Y008241D02*
X009321Y008241D01*
X009280Y008339D02*
X009489Y008339D01*
X009391Y008438D02*
X009212Y008438D01*
X009113Y008537D02*
X009342Y008537D01*
X009301Y008635D02*
X008952Y008635D01*
X009260Y008734D02*
X002641Y008734D01*
X002612Y008832D02*
X009220Y008832D01*
X009293Y009423D02*
X009095Y009423D01*
X009194Y009522D02*
X009334Y009522D01*
X009375Y009621D02*
X009273Y009621D01*
X009314Y009719D02*
X009470Y009719D01*
X009568Y009818D02*
X009354Y009818D01*
X009367Y009916D02*
X009667Y009916D01*
X009902Y010015D02*
X009367Y010015D01*
X009367Y010113D02*
X011658Y010113D01*
X011699Y010212D02*
X009333Y010212D01*
X009292Y010310D02*
X011747Y010310D01*
X011657Y009916D02*
X010847Y009916D01*
X010945Y009818D02*
X011695Y009818D01*
X011739Y009719D02*
X011044Y009719D01*
X011139Y009621D02*
X011837Y009621D01*
X012018Y009522D02*
X011180Y009522D01*
X011220Y009423D02*
X014093Y009423D01*
X014052Y009325D02*
X011261Y009325D01*
X011294Y009226D02*
X014019Y009226D01*
X014019Y009128D02*
X011294Y009128D01*
X011294Y008931D02*
X014019Y008931D01*
X014020Y008832D02*
X011294Y008832D01*
X011253Y008734D02*
X014060Y008734D01*
X014101Y008635D02*
X011212Y008635D01*
X011172Y008537D02*
X014142Y008537D01*
X014191Y008438D02*
X011123Y008438D01*
X011024Y008339D02*
X014289Y008339D01*
X014388Y008241D02*
X010926Y008241D01*
X010307Y008241D02*
X010207Y008241D01*
X010207Y008339D02*
X010307Y008339D01*
X010307Y008438D02*
X010207Y008438D01*
X010207Y008537D02*
X010307Y008537D01*
X010307Y008635D02*
X010207Y008635D01*
X010207Y008734D02*
X010307Y008734D01*
X010307Y008832D02*
X010207Y008832D01*
X010207Y009128D02*
X010307Y009128D01*
X010307Y009226D02*
X010207Y009226D01*
X010207Y009325D02*
X010307Y009325D01*
X010307Y009423D02*
X010207Y009423D01*
X010207Y009522D02*
X010307Y009522D01*
X010307Y009621D02*
X010207Y009621D01*
X010207Y009719D02*
X010307Y009719D01*
X010307Y009818D02*
X010207Y009818D01*
X010207Y009916D02*
X010307Y009916D01*
X010307Y010015D02*
X010207Y010015D01*
X010612Y010015D02*
X012136Y010015D01*
X012194Y010015D02*
X012681Y010015D01*
X012671Y010113D02*
X012686Y010113D01*
X012726Y010212D02*
X012631Y010212D01*
X012583Y010310D02*
X012788Y010310D01*
X012877Y010409D02*
X012484Y010409D01*
X012535Y010507D02*
X012778Y010507D01*
X012723Y010606D02*
X012591Y010606D01*
X012632Y010704D02*
X012682Y010704D01*
X012681Y010803D02*
X012632Y010803D01*
X012628Y010902D02*
X012686Y010902D01*
X012727Y011000D02*
X012587Y011000D01*
X012525Y011099D02*
X012789Y011099D01*
X012891Y011197D02*
X012423Y011197D01*
X013407Y011197D02*
X015727Y011197D01*
X015825Y011296D02*
X007757Y011296D01*
X007755Y011394D02*
X015924Y011394D01*
X016022Y011493D02*
X007658Y011493D01*
X007757Y011197D02*
X007885Y011197D01*
X007787Y011099D02*
X007757Y011099D01*
X007172Y011024D02*
X007172Y010954D01*
X006657Y010954D01*
X006657Y010749D01*
X006367Y010749D01*
X006367Y012259D01*
X006127Y012499D01*
X006127Y012499D01*
X005717Y012909D01*
X005717Y012940D01*
X005639Y013128D01*
X005496Y013271D01*
X005453Y013289D01*
X005496Y013307D01*
X005518Y013329D01*
X005887Y013329D01*
X006697Y012519D01*
X006697Y012452D01*
X006760Y012389D01*
X006697Y012326D01*
X006697Y011552D01*
X006757Y011492D01*
X006657Y011393D01*
X006657Y011024D01*
X007172Y011024D01*
X007172Y011000D02*
X006367Y011000D01*
X006367Y010902D02*
X006657Y010902D01*
X006657Y010803D02*
X006367Y010803D01*
X006367Y011099D02*
X006657Y011099D01*
X006657Y011197D02*
X006367Y011197D01*
X006367Y011296D02*
X006657Y011296D01*
X006659Y011394D02*
X006367Y011394D01*
X006367Y011493D02*
X006756Y011493D01*
X006697Y011591D02*
X006367Y011591D01*
X006367Y011690D02*
X006697Y011690D01*
X006697Y011788D02*
X006367Y011788D01*
X006367Y011887D02*
X006697Y011887D01*
X006697Y011986D02*
X006367Y011986D01*
X006367Y012084D02*
X006697Y012084D01*
X006697Y012183D02*
X006367Y012183D01*
X006344Y012281D02*
X006697Y012281D01*
X006751Y012380D02*
X006246Y012380D01*
X006147Y012478D02*
X006697Y012478D01*
X006639Y012577D02*
X006049Y012577D01*
X005950Y012675D02*
X006541Y012675D01*
X006442Y012774D02*
X005852Y012774D01*
X005753Y012872D02*
X006344Y012872D01*
X006245Y012971D02*
X005704Y012971D01*
X005663Y013070D02*
X006146Y013070D01*
X006048Y013168D02*
X005599Y013168D01*
X005500Y013267D02*
X005949Y013267D01*
X007862Y010015D02*
X007947Y010015D01*
X008361Y008635D02*
X003952Y008635D01*
X004113Y008537D02*
X008200Y008537D01*
X008102Y008438D02*
X004212Y008438D01*
X004280Y008339D02*
X008034Y008339D01*
X007993Y008241D02*
X004321Y008241D01*
X004362Y008142D02*
X007952Y008142D01*
X007947Y008044D02*
X004367Y008044D01*
X004367Y007945D02*
X007947Y007945D01*
X007947Y007847D02*
X004366Y007847D01*
X004326Y007748D02*
X007988Y007748D01*
X008029Y007650D02*
X004285Y007650D01*
X004274Y007551D02*
X008091Y007551D01*
X008189Y007453D02*
X004373Y007453D01*
X004472Y007354D02*
X008334Y007354D01*
X010207Y008044D02*
X010307Y008044D01*
X010307Y008142D02*
X010207Y008142D01*
X012136Y009522D02*
X012193Y009522D01*
X012193Y009621D02*
X012136Y009621D01*
X012136Y009719D02*
X012193Y009719D01*
X012193Y009818D02*
X012136Y009818D01*
X012136Y009916D02*
X012193Y009916D01*
X012492Y009621D02*
X012878Y009621D01*
X012779Y009719D02*
X012591Y009719D01*
X012634Y009818D02*
X012723Y009818D01*
X012682Y009916D02*
X012672Y009916D01*
X012311Y009522D02*
X014134Y009522D01*
X014175Y009621D02*
X013420Y009621D01*
X013519Y009719D02*
X014270Y009719D01*
X014368Y009818D02*
X013575Y009818D01*
X013634Y009916D02*
X014467Y009916D01*
X013625Y010902D02*
X015431Y010902D01*
X015530Y011000D02*
X013571Y011000D01*
X013509Y011099D02*
X015628Y011099D01*
X003361Y008635D02*
X002670Y008635D01*
X002699Y008537D02*
X003200Y008537D01*
X003102Y008438D02*
X002733Y008438D01*
X002770Y008339D02*
X003034Y008339D01*
X002993Y008241D02*
X002808Y008241D01*
X002846Y008142D02*
X002952Y008142D01*
X002947Y008044D02*
X002893Y008044D01*
X002939Y007945D02*
X002947Y007945D01*
X012081Y026471D02*
X013233Y026471D01*
D24*
X012657Y023939D02*
X011657Y023939D01*
X008257Y023939D01*
X007207Y022889D01*
X007207Y018289D01*
X007907Y018289D01*
X007207Y018289D02*
X007207Y017239D01*
X009257Y017239D01*
X009607Y016889D01*
X015757Y016889D01*
X018207Y019339D01*
X019457Y019339D01*
X019557Y019339D01*
X019457Y019339D02*
X019457Y018189D01*
X019457Y017389D01*
X019857Y016989D01*
X020557Y016739D02*
X020557Y018089D01*
X020457Y018189D01*
X020457Y019239D01*
X020357Y019339D01*
X018857Y016989D02*
X018607Y016739D01*
X018407Y015539D02*
X019057Y015539D01*
X019357Y015539D01*
X020557Y016739D01*
X018407Y015539D02*
X016857Y013989D01*
X016957Y012989D02*
X017407Y012989D01*
X017857Y013589D02*
X017857Y013989D01*
X018857Y013989D02*
X018857Y013589D01*
X017407Y011989D02*
X017207Y011789D01*
X016157Y012489D02*
X015807Y012839D01*
X015157Y012489D02*
X014657Y012489D01*
X010757Y012489D01*
X010157Y012489D01*
X009157Y012489D02*
X008507Y012489D01*
X007957Y011939D01*
X007207Y011939D01*
X008066Y010798D02*
X012165Y010798D01*
X012165Y010011D02*
X012165Y009089D01*
X015007Y009089D01*
X015057Y009039D01*
X015707Y009039D01*
X016657Y009989D01*
X016657Y007989D02*
X016357Y007689D01*
X016157Y007689D01*
X016157Y006089D01*
X016157Y007689D02*
X010907Y007689D01*
X009307Y006089D01*
X009157Y006089D01*
X010207Y008989D02*
X004657Y008989D01*
X003657Y009989D01*
X005007Y011939D02*
X004607Y012339D01*
X004607Y014039D01*
X005057Y014489D01*
X007207Y014489D01*
X007207Y017239D01*
X005207Y017239D02*
X005207Y016039D01*
X006151Y015095D01*
X006407Y015095D01*
X007207Y014489D02*
X007207Y013739D01*
X007207Y012839D02*
X006957Y012839D01*
X006057Y013739D01*
X005207Y013739D01*
X005207Y012839D02*
X005957Y012089D01*
X005957Y010539D01*
X006157Y010339D01*
X007607Y010339D01*
X008066Y010798D01*
X010207Y008989D02*
X010257Y009039D01*
X010307Y009089D01*
X012165Y009089D01*
X013149Y010011D02*
X013277Y010139D01*
X013308Y010639D02*
X013149Y010798D01*
X014157Y015489D02*
X014557Y015889D01*
X014757Y018089D02*
X015157Y018489D01*
X015807Y018839D02*
X016157Y018489D01*
X014957Y019639D02*
X014657Y019939D01*
X014307Y020289D01*
X013657Y019939D02*
X013657Y019589D01*
X016157Y024189D02*
X016157Y024889D01*
X009357Y023289D02*
X008957Y023289D01*
X008657Y022989D01*
X009157Y018939D02*
X009157Y018489D01*
X005207Y011939D02*
X005007Y011939D01*
X003657Y007989D02*
X003657Y007589D01*
X005157Y006089D01*
X021157Y012239D02*
X021407Y011989D01*
X021157Y012739D02*
X021407Y012989D01*
D25*
X019157Y010989D03*
X021157Y008989D03*
X019157Y006989D03*
X014757Y007139D03*
X014657Y011239D03*
X013907Y011739D03*
X014007Y013839D03*
X012657Y015739D03*
X012357Y017939D03*
X011007Y017389D03*
X010957Y018539D03*
X008707Y015489D03*
X009257Y014439D03*
X011407Y011739D03*
X007157Y008989D03*
X005157Y008989D03*
X006157Y005989D03*
X015957Y015639D03*
X015607Y017739D03*
X014157Y018989D03*
X018357Y018189D03*
X019057Y015539D03*
X019157Y021989D03*
X021257Y024089D03*
X019157Y024989D03*
X015357Y024389D03*
X013607Y024889D03*
X011707Y024889D03*
X007957Y025089D03*
X006157Y023989D03*
X004157Y023989D03*
D26*
X009357Y023289D02*
X015257Y023289D01*
X016157Y024189D01*
X014057Y020539D02*
X014307Y020289D01*
X014057Y020539D02*
X010757Y020539D01*
X009157Y018939D01*
X011007Y017389D02*
X014057Y017389D01*
X014757Y018089D01*
X015757Y018839D02*
X015807Y018839D01*
X015757Y018839D02*
X014957Y019639D01*
X013657Y019589D02*
X013657Y019239D01*
X012357Y017939D01*
X014557Y015889D02*
X015107Y016439D01*
X018307Y016439D01*
X018607Y016739D01*
X015957Y015639D02*
X015957Y013989D01*
X016957Y012989D01*
X016757Y012789D01*
X016757Y011789D01*
X015507Y010539D01*
X013408Y010539D01*
X013308Y010639D01*
X013377Y010239D02*
X015657Y010239D01*
X017207Y011789D01*
X015807Y012839D02*
X015307Y013339D01*
X011857Y013339D01*
X010757Y014439D01*
X009257Y014439D01*
X013377Y010239D02*
X013277Y010139D01*
X017857Y013589D02*
X019107Y012339D01*
X021057Y012339D01*
X021157Y012239D01*
X021057Y012639D02*
X021157Y012739D01*
X021057Y012639D02*
X019807Y012639D01*
X018857Y013589D01*
M02*
