%
M48
M72
T01C0.0236
T02C0.0315
T03C0.0320
T04C0.0340
T05C0.0354
T06C0.0390
T07C0.0430
T08C0.0500
T09C0.1024
T10C0.1417
%
T01
X61569Y59890
X71569Y89890
X51569Y89890
X92569Y144390
X87069Y154890
X110069Y173890
X109569Y185390
X123569Y179390
X141569Y189890
X156069Y177390
X159569Y156390
X140069Y138390
X139069Y117390
X146569Y112390
X114069Y117390
X126569Y157390
X183569Y181890
X190569Y155390
X191569Y109890
X211569Y89890
X191569Y69890
X147569Y71390
X191569Y219890
X212569Y240890
X191569Y249890
X153569Y243890
X136069Y248890
X117069Y248890
X79569Y250890
X61569Y239890
X41569Y239890
T02
X121647Y107980
X121647Y100106
X131490Y100106
X131490Y107980
T03
X195569Y193390
X203569Y193390
T04
X51569Y60890
X91569Y60890
X72069Y109890
X72069Y119390
X72069Y128390
X72069Y137390
X52069Y137390
X52069Y128390
X52069Y119390
X52069Y109890
X52069Y172390
X39069Y182890
X39069Y192890
X72069Y172390
X79069Y182890
X79069Y192890
X100569Y214390
X100569Y224390
X116569Y239390
X126569Y239390
X136569Y239390
X146569Y239390
X161569Y248890
X201569Y248890
X146569Y199390
X136569Y199390
X126569Y199390
X116569Y199390
X91569Y248890
X51569Y248890
X174069Y129890
X174069Y119890
X214069Y119890
X214069Y129890
X204569Y181890
X194569Y181890
X201569Y60890
X161569Y60890
T05
X168569Y139890
X178569Y139890
X188569Y139890
X198569Y139890
X198569Y169890
X188569Y169890
X178569Y169890
X168569Y169890
X64069Y158827
X64069Y150953
T06
X91569Y124890
X101569Y124890
X151569Y124890
X161569Y124890
X161569Y184890
X151569Y184890
X101569Y184890
X91569Y184890
T07
X111569Y154890
X141569Y154890
T08
X166569Y209890
X166569Y229890
X216569Y229890
X216569Y209890
X216569Y99890
X216569Y79890
X166569Y79890
X166569Y99890
X86569Y99890
X86569Y79890
X36569Y79890
X36569Y99890
X36569Y209890
X36569Y229890
X86569Y229890
X86569Y209890
T09
X102569Y90390
X150569Y90390
T10
X126569Y254890
M30
